<?xml version="1.0" encoding="utf-8"?>
<!-- Generator: Adobe Illustrator 16.2.1, SVG Export Plug-In . SVG Version: 6.00 Build 0)  -->
<!DOCTYPE svg PUBLIC "-//W3C//DTD SVG 1.1//EN" "http://www.w3.org/Graphics/SVG/1.1/DTD/svg11.dtd">
<svg version="1.1" id="Layer_1" xmlns="http://www.w3.org/2000/svg" xmlns:xlink="http://www.w3.org/1999/xlink" x="0px" y="0px"
	 width="154.442px" height="67.266px" viewBox="0 0 154.442 67.266" enable-background="new 0 0 154.442 67.266"
	 xml:space="preserve">
<g>
	<g>
		<rect x="48.048" y="56.584" width="1.733" height="7.659"/>
		<polygon points="65.057,56.584 65.057,58.099 67.399,58.099 67.399,64.243 69.133,64.243 69.133,58.099 71.469,58.099 
			71.469,56.584 		"/>
		<polygon points="75.612,56.584 75.612,64.243 80.913,64.243 80.913,62.728 77.346,62.728 77.346,61.087 80.239,61.087 
			80.239,59.571 77.346,59.571 77.346,58.099 80.718,58.099 80.718,56.584 		"/>
		<polygon points="117.43,56.584 117.43,58.099 119.774,58.099 119.774,64.243 121.507,64.243 121.507,58.099 123.843,58.099 
			123.843,56.584 		"/>
		<rect x="128.297" y="56.584" width="1.732" height="7.659"/>
		<polygon points="145.613,56.584 145.613,64.243 150.913,64.243 150.913,62.728 147.346,62.728 147.346,61.087 150.241,61.087 
			150.241,59.571 147.346,59.571 147.346,58.099 150.72,58.099 150.72,56.584 		"/>
		<path d="M109.964,64.387c-2.186,0-3.962-1.777-3.962-3.962c0-2.184,1.776-3.961,3.962-3.961c1.685,0,3.189,1.072,3.741,2.667
			l0.092,0.269h-1.739l-0.059-0.104c-0.41-0.74-1.191-1.2-2.035-1.2c-1.285,0-2.332,1.046-2.332,2.329
			c0,1.285,1.047,2.329,2.332,2.329c0.844,0,1.623-0.46,2.035-1.198l0.057-0.105h1.741l-0.092,0.27
			C113.153,63.314,111.648,64.387,109.964,64.387"/>
		<polygon points="59.9,56.585 59.9,61.291 56.627,56.585 54.888,56.585 54.888,64.243 56.627,64.243 56.627,59.526 59.875,64.243 
			59.9,64.235 59.9,64.243 61.639,64.243 61.639,56.585 		"/>
		<path d="M89.27,64.243h2.097l-1.628-2.316c0.945-0.453,1.604-1.411,1.604-2.529c0-1.545-1.247-2.797-2.79-2.811v-0.003h-2.927
			v0.001v7.658h1.739V62.21h0.477L89.27,64.243z M87.364,58.323h1.172v0.002c0.59,0.004,1.066,0.482,1.066,1.072
			c0,0.591-0.477,1.068-1.066,1.072v0.001h-1.172V58.323z"/>
		<path d="M100.759,64.243h1.887l-3.038-7.66h-1.609l-3.039,7.66h1.887l0.695-1.754h2.522L100.759,64.243z M98.195,60.842
			l0.607-1.531l0.606,1.531H98.195z"/>
		<polygon points="139.766,56.584 137.81,61.517 135.853,56.584 133.966,56.584 137.004,64.243 138.614,64.243 141.652,56.584 		"/>
	</g>
	<path fill="#101820" d="M149.175,26.615c-2.428-2.458-5.372-3.704-8.803-3.825h-15.986l-3.234,10.54l-3.216-10.474l0.021-0.066
		h-0.04h-9.437h-0.04l0.021,0.066l-3.214,10.474l-3.236-10.54h-9.476l1.434,4.672c-0.383-0.482-0.791-0.953-1.252-1.403
		c-2.674-2.739-5.966-4.109-9.845-4.112h-0.005h-0.007h-0.003c-3.852,0-7.147,1.372-9.857,4.112
		c-1.17,1.156-2.074,2.425-2.744,3.792c-0.316-1.698-1.119-3.189-2.426-4.472c-1.546-1.578-3.397-2.429-5.553-2.58H47.952
		c3.274,3.382,5.293,7.987,5.293,13.066c0,4.986-1.945,9.515-5.113,12.879h8.774v-7.01l4.004,7.01h9.56l-4.674-8.284
		c0.334-0.243,0.973-0.728,1.853-1.486c0.517-0.432,0.948-0.952,1.314-1.547c0.316,3.21,1.659,6.002,4.036,8.351
		c2.71,2.741,6.006,4.08,9.857,4.08c3.885,0,7.182-1.339,9.859-4.08c2.567-2.506,3.918-5.521,4.108-9.008l3.676,11.976h0.014h9.464
		h0.013l3.208-10.451l3.207,10.451h0.015h9.464h0.013l5.461-17.792v17.791h9.015c0.026,0,0.054-0.004,0.081-0.004h0.002h0.004
		c3.364-0.11,6.309-1.352,8.716-3.789c2.581-2.52,3.825-5.586,3.825-9.168C153,32.199,151.756,29.165,149.175,26.615 M61.943,32.539
		v0.06v0.123v0.122c-0.062,0.484-0.273,0.879-0.669,1.273c-0.364,0.365-0.818,0.607-1.364,0.607h-2.986
		c-0.005-0.001-0.012-0.002-0.017-0.002h-0.001v-4.398h3.004c0.546,0.03,1,0.243,1.364,0.637c0.456,0.426,0.638,0.88,0.669,1.488
		V32.539z M86.415,39.442c-0.979,1.012-2.12,1.502-3.559,1.502c-1.37,0-2.578-0.49-3.524-1.502
		c-1.012-0.946-1.501-2.154-1.501-3.525c0-1.403,0.489-2.578,1.501-3.59c0.946-0.98,2.154-1.469,3.524-1.469
		c1.438,0,2.579,0.488,3.559,1.469c0.979,1.012,1.503,2.187,1.503,3.59C87.918,37.288,87.395,38.496,86.415,39.442 M143.469,39.272
		c-0.941,0.973-2.126,1.457-3.431,1.457h-0.364v-9.865c0.092-0.03,0.244-0.03,0.364-0.03c1.305,0,2.489,0.486,3.431,1.458
		c0.972,0.97,1.457,2.125,1.457,3.491C144.926,37.147,144.44,38.331,143.469,39.272"/>
	<path fill="#0F1F19" d="M30.954,39.405c0.979,0.98,2.154,1.47,3.559,1.47c1.405,0,2.612-0.489,3.559-1.47
		c0.425-0.424,0.751-0.881,1.011-1.372h9.305c-0.457,2.939-1.762,5.519-4.016,7.706c-2.704,2.736-5.993,4.074-9.835,4.079
		c-0.035,0-0.07-0.001-0.104-0.001c-0.118,0-0.238-0.004-0.356-0.008c-2.504-0.086-4.849-0.811-6.861-2.017
		c-0.898-0.564-1.752-1.247-2.561-2.054c-2.741-2.709-4.079-6.007-4.079-9.859c0-3.854,1.338-7.149,4.079-9.859
		c2.737-2.739,5.997-4.108,9.841-4.113c0.025,0.001,0.05,0.001,0.074,0.001h0.013c0.494,0.013,0.968,0.039,1.428,0.072
		c3.216,0.314,6.012,1.658,8.362,4.04c2.254,2.187,3.592,4.734,4.016,7.705h-9.271c-0.294-0.524-0.62-1.011-1.045-1.437
		c-0.946-0.98-2.153-1.469-3.559-1.469c-1.404,0-2.579,0.489-3.559,1.469c-0.946,1.012-1.436,2.188-1.436,3.591
		C29.519,37.251,30.008,38.46,30.954,39.405"/>
	<g>
		<path fill="#48997C" d="M16.174,9.083c0.675,0,1.221-0.547,1.221-1.222c0-0.674-0.546-1.221-1.221-1.221s-1.222,0.547-1.222,1.221
			C14.952,8.536,15.499,9.083,16.174,9.083"/>
		<path fill="#48997C" d="M22.215,11.87c1.068,0,1.935-0.866,1.935-1.935S23.283,8,22.215,8S20.28,8.867,20.28,9.935
			S21.146,11.87,22.215,11.87"/>
		<path fill="#48997C" d="M22.157,3.41c0.929,0,1.681-0.752,1.681-1.681s-0.752-1.68-1.681-1.68c-0.928,0-1.68,0.752-1.68,1.68
			S21.229,3.41,22.157,3.41"/>
		<path fill="#48997C" d="M29.576,6.017c1.34,0,2.426-1.086,2.426-2.426c0-0.579-0.202-1.109-0.54-1.526
			c0.503-0.03,0.901-0.447,0.901-0.958c0-0.529-0.43-0.959-0.959-0.959c-0.53,0-0.959,0.43-0.959,0.959
			c0,0.079,0.01,0.155,0.027,0.229c-0.277-0.11-0.58-0.171-0.896-0.171c-1.34,0-2.427,1.086-2.427,2.426
			C27.149,4.93,28.236,6.017,29.576,6.017"/>
		<path fill="#48997C" d="M35.593,9.902c1.06,0,1.918-0.855,1.918-1.91s-0.858-1.91-1.918-1.91s-1.918,0.855-1.918,1.91
			S34.533,9.902,35.593,9.902"/>
		<path fill="#48997C" d="M49.692,14.657c-0.915,0-1.656,0.745-1.656,1.664s0.741,1.664,1.656,1.664
			c0.914,0,1.655-0.745,1.655-1.664S50.606,14.657,49.692,14.657"/>
		<path fill="#48997C" d="M42.979,6.64c0.675,0,1.222-0.547,1.222-1.221c0-0.675-0.547-1.222-1.222-1.222s-1.222,0.547-1.222,1.222
			C41.757,6.093,42.304,6.64,42.979,6.64"/>
		<path fill="#48997C" d="M39.15,3.869c1.068,0,1.935-0.866,1.935-1.935S40.219,0,39.15,0s-1.935,0.866-1.935,1.935
			S38.082,3.869,39.15,3.869"/>
		<path fill="#48997C" d="M6.247,23.46c0.724,0,1.312-0.587,1.312-1.312s-0.588-1.312-1.312-1.312c-0.725,0-1.312,0.587-1.312,1.312
			S5.522,23.46,6.247,23.46"/>
		<path fill="#48997C" d="M6.648,47.511c-0.919,0-1.664,0.742-1.664,1.656s0.745,1.656,1.664,1.656s1.664-0.742,1.664-1.656
			S7.567,47.511,6.648,47.511"/>
		<path fill="#48997C" d="M1.237,43.576C0.554,43.576,0,44.132,0,44.813c0,0.676,0.548,1.223,1.223,1.223
			c0.676,0,1.229-0.547,1.237-1.223C2.467,44.132,1.92,43.576,1.237,43.576"/>
		<path fill="#48997C" d="M8.198,18.542c1.431,0,2.59-1.16,2.59-2.59s-1.159-2.59-2.59-2.59s-2.591,1.16-2.591,2.59
			S6.768,18.542,8.198,18.542"/>
		<path fill="#48997C" d="M4.895,32.822c1.154,0,2.09-0.929,2.09-2.074s-0.936-2.074-2.09-2.074s-2.091,0.928-2.091,2.074
			S3.74,32.822,4.895,32.822"/>
		<path fill="#48997C" d="M13.592,15.312c0.914,0,1.655-0.741,1.655-1.656c0-0.914-0.741-1.655-1.655-1.655
			c-0.915,0-1.656,0.741-1.656,1.655C11.936,14.571,12.677,15.312,13.592,15.312"/>
		<path fill="#48997C" d="M9.936,20.706c-0.525,0-0.951,0.426-0.951,0.951c0,0.525,0.426,0.951,0.951,0.951s0.951-0.426,0.951-0.951
			C10.887,21.132,10.461,20.706,9.936,20.706"/>
		<path fill="#48997C" d="M15.657,35.864c0-10.379,8.415-18.793,18.794-18.793c4.69,0,8.976,1.722,12.268,4.563
			c0.898-0.252,1.559-1.075,1.559-2.053c0-1.009-0.702-1.852-1.644-2.073c-0.053-0.012-0.245-0.042-0.282-0.055
			c-0.164-0.054-0.283-0.215-0.283-0.395c0-0.084,0.026-0.162,0.07-0.226c0.051-0.074,0.164-0.17,0.207-0.25
			c0.074-0.137,0.117-0.293,0.117-0.459c0-0.53-0.43-0.959-0.959-0.959c-0.53,0-0.96,0.43-0.96,0.959c0,0.274,0.115,0.521,0.3,0.696
			c0.065,0.062,0.195,0.13,0.281,0.16l0.008,0.003c0.085,0.029,0.217,0.102,0.264,0.18c0.031,0.054,0.05,0.116,0.05,0.183
			c0,0.117-0.083,0.213-0.172,0.278c-0.072,0.054-0.207,0.115-0.282,0.166c-0.117,0.077-0.226,0.166-0.324,0.263
			c-0.29-0.482-0.816-0.805-1.419-0.805c-0.184,0-0.359,0.03-0.524,0.085c0.096-0.248,0.147-0.517,0.147-0.799
			c0-1.153-0.879-2.102-2.003-2.21c0.246-0.222,0.427-0.515,0.51-0.846c0.021-0.083,0.035-0.271,0.041-0.41
			c0.003-0.09,0.031-0.231,0.083-0.306c0.175-0.251,0.466-0.416,0.796-0.416c0.22,0,0.422,0.073,0.585,0.197
			c0.071,0.055,0.189,0.137,0.276,0.164c0.179,0.054,0.368,0.082,0.564,0.082c1.087,0,1.967-0.881,1.967-1.967
			s-0.88-1.967-1.967-1.967c-0.957,0-1.754,0.683-1.931,1.588c-0.018,0.089-0.029,0.236-0.016,0.325
			c0.009,0.057,0.021,0.113,0.029,0.156c0.01,0.049,0.015,0.1,0.015,0.152c0,0.365-0.256,0.671-0.599,0.745
			c-0.089,0.02-0.238,0.011-0.32-0.027c-0.077-0.036-0.159-0.087-0.225-0.13c-0.268-0.179-0.591-0.285-0.938-0.285
			c-0.505,0-0.958,0.222-1.268,0.574c-0.314-0.668-0.994-1.131-1.781-1.131c-0.879,0-1.623,0.576-1.875,1.372
			c-0.32-0.204-0.701-0.322-1.109-0.322c-0.187,0-0.369,0.025-0.542,0.072c0.446-0.44,0.723-1.051,0.723-1.728
			c0-1.34-1.086-2.427-2.427-2.427c-1.34,0-2.426,1.086-2.426,2.427c0,0.238,0.034,0.468,0.099,0.686
			c-0.304-0.176-0.657-0.276-1.033-0.276c-1.141,0-2.065,0.925-2.065,2.065c0,0.529,0.198,1.011,0.525,1.377
			c0.059,0.065,0.196,0.155,0.318,0.224c0.117,0.066,0.333,0.102,0.466,0.126c0.626,0.115,1.101,0.664,1.101,1.322
			c0,0.742-0.602,1.344-1.345,1.344c-0.742,0-1.345-0.602-1.345-1.344c0-0.098,0.011-0.192,0.03-0.284
			c0.013-0.061,0.051-0.26,0.033-0.357c-0.099-0.516-0.473-0.933-0.97-1.067c-0.11-0.03-0.228-0.046-0.348-0.046
			c-0.031,0-0.063,0.001-0.096,0.003c-0.135,0.01-0.336,0.099-0.463,0.146c-0.144,0.052-0.297,0.081-0.458,0.081
			c-0.277,0-0.534-0.085-0.748-0.23c-0.112-0.076-0.283-0.215-0.406-0.271c-0.246-0.11-0.518-0.171-0.805-0.171
			c-1.086,0-1.967,0.88-1.967,1.967c0,0.48,0.172,0.921,0.458,1.262h-0.032c-0.488,0-0.935,0.178-1.279,0.472V17.23
			c0-1.06-0.862-1.918-1.926-1.918s-1.927,0.858-1.927,1.918s0.863,1.918,1.927,1.918c0.117,0,0.231-0.01,0.343-0.03
			c0.083-0.02,0.314-0.07,0.357-0.083c0.153-0.044,0.313-0.067,0.48-0.067c0.955,0,1.729,0.774,1.729,1.729
			c0,0.956-0.774,1.73-1.729,1.73s-1.739-0.774-1.729-1.73c0.001-0.106-0.03-0.261-0.062-0.351
			c-0.327-0.744-1.075-1.264-1.946-1.264c-1.173,0-2.123,0.943-2.123,2.107c0,0.995,0.695,1.83,1.631,2.05
			c-0.598,0.092-1.112,0.431-1.436,0.909c-0.455-0.369-1.037-0.59-1.671-0.59c-1.458,0-2.64,1.171-2.64,2.615
			c0,1.389,1.094,2.525,2.474,2.61c-0.335,0.368-0.539,0.855-0.539,1.39c0,0.659,0.245,1.234,0.75,1.583
			c0.234,0.162,0.693,0.31,0.839,0.374c0.474,0.208,0.805,0.681,0.805,1.231c0,0.742-0.602,1.345-1.344,1.345
			c-0.389,0-0.739-0.165-0.985-0.429c-0.104-0.112-0.234-0.339-0.552-0.516c-0.359-0.199-0.736-0.318-1.177-0.318
			c-1.453,0-2.631,1.171-2.631,2.615c0,0.533,0.16,1.029,0.436,1.442c-0.118-0.026-0.243-0.04-0.37-0.04
			c-0.273,0-0.532,0.064-0.762,0.18c0.005-0.055,0.008-0.109,0.008-0.164c0-1.051-0.855-1.902-1.91-1.902s-1.91,0.852-1.91,1.902
			s0.855,1.902,1.91,1.902c0.356,0,0.69-0.098,0.976-0.267c0,0.009,0,0.019,0,0.028c0,0.928,0.756,1.68,1.688,1.68
			c0.543,0,1.026-0.254,1.335-0.651c0.084-0.106,0.187-0.304,0.229-0.432c0.037-0.11,0.056-0.315,0.092-0.446
			c0.105-0.385,0.458-0.666,0.877-0.666c0.007,0,0.015,0,0.022,0c0.136,0.003,0.353,0.03,0.485,0.006
			c0.147-0.027,0.291-0.065,0.428-0.115c0.129-0.047,0.312-0.178,0.443-0.207c0.033-0.008,0.068-0.012,0.104-0.012
			c0.263,0,0.476,0.213,0.476,0.475c0,0.047-0.007,0.09-0.019,0.133c-0.037,0.129-0.181,0.305-0.231,0.431
			c-0.093,0.231-0.144,0.483-0.144,0.749c0,0.928,0.635,1.69,1.485,1.943c0.268,0.08,0.681,0.002,0.815-0.015
			c0.058-0.007,0.115-0.011,0.175-0.011c0.761,0,1.377,0.616,1.377,1.377s-0.616,1.377-1.377,1.377c-0.677,0-1.24-0.488-1.355-1.133
			c-0.023-0.133-0.093-0.541-0.093-0.541c-0.228-0.803-0.968-1.393-1.848-1.393c-1.059,0-1.918,0.855-1.918,1.91
			s0.859,1.91,1.918,1.91c0.579,0,1.098-0.255,1.449-0.657c0.055-0.078,0.146-0.13,0.248-0.13c0.168,0,0.304,0.137,0.304,0.304
			c0,0.028-0.004,0.056-0.012,0.081l0.003,0.001c-0.048,0.191-0.074,0.392-0.074,0.599c0,0.92,0.509,1.723,1.26,2.145
			c-0.54,0.338-0.898,0.936-0.898,1.617c0,1.055,0.858,1.91,1.918,1.91c0.652,0,1.229-0.324,1.575-0.819
			c0,0.022-0.001,0.044-0.001,0.065c0,1.132,0.925,2.049,2.065,2.049c0.978,0,1.797-0.674,2.012-1.578
			c0.041-0.176,0.021-0.414,0.021-0.527c0-0.422,0.341-0.764,0.763-0.764c0.421,0,0.762,0.342,0.762,0.764
			c0,0.27-0.14,0.506-0.351,0.642c-0.114,0.073-0.316,0.159-0.42,0.247c-0.541,0.462-0.886,1.148-0.886,1.914
			c0,0.023,0.017,0.164,0.017,0.213c0,0.367-0.297,0.664-0.663,0.664c-0.093,0-0.18-0.019-0.259-0.053
			c-0.125-0.053-0.303-0.188-0.433-0.225c-0.113-0.033-0.234-0.051-0.358-0.051c-0.711,0-1.287,0.572-1.287,1.279
			c0,0.706,0.576,1.279,1.287,1.279c0.481,0,0.9-0.264,1.121-0.652l0.009-0.014c0.064-0.119,0.088-0.342,0.135-0.469
			c0.098-0.267,0.354-0.456,0.653-0.456c0.166,0,0.318,0.058,0.438,0.155c0.104,0.084,0.241,0.26,0.35,0.341
			c0.236,0.178,0.506,0.314,0.797,0.4c-0.145,0.166-0.232,0.383-0.232,0.62c0,0.521,0.422,0.942,0.942,0.942
			c0.521,0,0.943-0.422,0.943-0.942c0-0.236-0.086-0.451-0.229-0.616c0.7-0.202,1.275-0.7,1.581-1.349
			c0.453,0.777,1.297,1.301,2.264,1.301c0.985,0,1.844-0.544,2.289-1.347c0,0,0.241-0.435,0.326-0.739
			C20.989,51.136,15.657,44.124,15.657,35.864"/>
	</g>
</g>
</svg>
