<?xml version="1.0" encoding="UTF-8" standalone="no"?>
<svg width="131px" height="55px" viewBox="0 0 131 55" version="1.1" xmlns="http://www.w3.org/2000/svg" xmlns:xlink="http://www.w3.org/1999/xlink" xmlns:sketch="http://www.bohemiancoding.com/sketch/ns">
    <!-- Generator: Sketch 3.3.2 (12043) - http://www.bohemiancoding.com/sketch -->
    <title>LOGO CROWD</title>
    <desc>Created with Sketch.</desc>
    <defs></defs>
    <g id="Case-Studies" stroke="none" stroke-width="1" fill="none" fill-rule="evenodd" sketch:type="MSPage">
        <g id="casestudies_test2-copy-13" sketch:type="MSArtboardGroup" transform="translate(-158.000000, -50.000000)">
            <g id="Section-1" sketch:type="MSLayerGroup" transform="translate(1.000000, -2.000000)">
                <g id="LOGO-CROWD" transform="translate(157.000000, 52.000000)" sketch:type="MSShapeGroup">
                    <path d="M41.078945,48.29 L42.5566284,48.29 L42.5566284,54.8193578 L41.078945,54.8193578 L41.078945,48.29 Z" id="Fill-1" fill="#FFFFFF"></path>
                    <path d="M57.5771789,54.8193578 L57.5771789,49.5814908 L55.5795183,49.5814908 L55.5795183,48.29 L61.0462156,48.29 L61.0462156,49.5814908 L59.0541055,49.5814908 L59.0541055,54.8193578 L57.5771789,54.8193578" id="Fill-2" fill="#FFFFFF"></path>
                    <path d="M64.5788303,54.8193578 L64.5788303,48.29 L68.9308945,48.29 L68.9308945,49.5814908 L66.0557569,49.5814908 L66.0557569,50.8366514 L68.5234404,50.8366514 L68.5234404,52.1291514 L66.0557569,52.1291514 L66.0557569,53.5276147 L69.097156,53.5276147 L69.097156,54.8193578 L64.5788303,54.8193578" id="Fill-3" fill="#FFFFFF"></path>
                    <path d="M102.227592,54.8193578 L102.227592,49.5814908 L100.229427,49.5814908 L100.229427,48.29 L105.696628,48.29 L105.696628,49.5814908 L103.704771,49.5814908 L103.704771,54.8193578 L102.227592,54.8193578" id="Fill-4" fill="#FFFFFF"></path>
                    <path d="M109.493394,48.29 L110.970573,48.29 L110.970573,54.8193578 L109.493394,54.8193578 L109.493394,48.29 Z" id="Fill-5" fill="#FFFFFF"></path>
                    <path d="M124.256606,54.8193578 L124.256606,48.29 L128.609427,48.29 L128.609427,49.5814908 L125.733532,49.5814908 L125.733532,50.8366514 L128.201972,50.8366514 L128.201972,52.1291514 L125.733532,52.1291514 L125.733532,53.5276147 L128.774679,53.5276147 L128.774679,54.8193578 L124.256606,54.8193578" id="Fill-6" fill="#FFFFFF"></path>
                    <path d="M93.8640596,54.9419725 C92.0006193,54.9419725 90.4868578,53.4269495 90.4868578,51.5642661 C90.4868578,49.7023394 92.0006193,48.1878211 93.8640596,48.1878211 C95.3001147,48.1878211 96.5830275,49.102133 97.0533028,50.4612385 L97.1315138,50.6900688 L95.6490367,50.6900688 L95.5993349,50.6015138 C95.2491514,49.9705275 94.5836009,49.5789679 93.8640596,49.5789679 C92.7686009,49.5789679 91.8759862,50.4700688 91.8759862,51.5642661 C91.8759862,52.6599771 92.7686009,53.5503211 93.8640596,53.5503211 C94.5836009,53.5503211 95.2476376,53.1585092 95.5993349,52.5290367 L95.6475229,52.4392202 L97.1315138,52.4392202 L97.0533028,52.6680505 C96.5830275,54.0279128 95.3001147,54.9419725 93.8640596,54.9419725" id="Fill-7" fill="#FFFFFF"></path>
                    <path d="M51.1833028,48.2905046 L51.1833028,52.3029817 L48.3924312,48.2905046 L46.9102064,48.2905046 L46.9102064,54.8193578 L48.3924312,54.8193578 L48.3924312,50.7993119 L51.1613532,54.8193578 L51.1833028,54.8127982 L51.1833028,54.8193578 L52.6657798,54.8193578 L52.6657798,48.2905046 L51.1833028,48.2905046" id="Fill-8" fill="#FFFFFF"></path>
                    <path d="M76.2211697,54.8193578 L78.008922,54.8193578 L76.621055,52.8451606 C77.4273853,52.4588991 77.9877294,51.6419725 77.9877294,50.6888073 C77.9877294,49.3713303 76.9250688,48.3036239 75.6096101,48.2927752 L75.6096101,48.29 L73.1146789,48.29 L73.1146789,54.8193578 L74.597156,54.8193578 L74.597156,53.0863532 L75.0030963,53.0863532 L76.2211697,54.8193578 L76.2211697,54.8193578 Z M74.597156,49.7724771 L75.5967431,49.7724771 L75.5967431,49.7744954 C76.0993119,49.7780275 76.5052523,50.1852294 76.5052523,50.6888073 C76.5052523,51.192133 76.0993119,51.5995872 75.5967431,51.6031193 L75.5967431,51.6038761 L74.597156,51.6038761 L74.597156,49.7724771 L74.597156,49.7724771 Z" id="Fill-9" fill="#FFFFFF"></path>
                    <path d="M86.0162156,54.8193578 L87.6245872,54.8193578 L85.0345413,48.29 L83.6623165,48.29 L81.0722706,54.8193578 L82.6806422,54.8193578 L83.2732798,53.3245183 L85.423578,53.3245183 L86.0162156,54.8193578 L86.0162156,54.8193578 Z M83.8305963,51.92 L84.3483028,50.6143807 L84.8662615,51.92 L83.8305963,51.92 L83.8305963,51.92 Z" id="Fill-10" fill="#FFFFFF"></path>
                    <path d="M119.27078,48.29 L117.603119,52.4947248 L115.934954,48.29 L114.326583,48.29 L116.916881,54.8193578 L118.288853,54.8193578 L120.879404,48.29 L119.27078,48.29" id="Fill-11" fill="#FFFFFF"></path>
                    <path d="M26.444656,33.6763991 C27.2794954,34.5122477 28.2816055,34.9297936 29.4784862,34.9297936 C30.6763761,34.9297936 31.7049771,34.5122477 32.5115596,33.6763991 C32.8741055,33.3151147 33.152133,32.9255734 33.3741514,32.5072706 L41.3057569,32.5072706 C40.9162156,35.0127982 39.8043578,37.2115367 37.8828899,39.0762385 C35.5774312,41.408945 32.7731881,42.5493119 29.4984174,42.5541055 C29.4683945,42.5541055 29.4391284,42.552844 29.4096101,42.552844 C29.3081881,42.552844 29.2060092,42.5493119 29.1050917,42.5460321 C26.971445,42.4731193 24.9720183,41.8557569 23.256422,40.827156 C22.4899541,40.3460321 21.7623394,39.7642431 21.0733257,39.0762385 C18.736078,36.7664908 17.5954587,33.9556881 17.5954587,30.671078 C17.5954587,27.3864679 18.736078,24.5761697 21.0733257,22.2666743 C23.406789,19.9319495 26.186055,18.7648394 29.462844,18.7600459 C29.4840367,18.7613073 29.5052294,18.7608028 29.5261697,18.7613073 L29.5372706,18.7613073 C29.9580963,18.7724083 30.3615138,18.7941055 30.7540826,18.8226147 C33.4955046,19.091055 35.8786697,20.2364679 37.8828899,22.2666743 C39.8043578,24.1313761 40.9447248,26.3026147 41.3057569,28.8348853 L33.4029128,28.8348853 C33.152133,28.3880734 32.8741055,27.9725459 32.5115596,27.61 C31.7049771,26.774656 30.6763761,26.357867 29.4784862,26.357867 C28.2816055,26.357867 27.2794954,26.774656 26.444656,27.61 C25.6375688,28.4723394 25.2212844,29.4754587 25.2212844,30.671078 C25.2212844,31.8402064 25.6375688,32.871078 26.444656,33.6763991" id="Fill-12" fill="#FFFFFF"></path>
                    <g id="Splash" fill="#F6F6F6">
                        <path d="M3.32295872,27.7401835 C4.14266055,28.2790826 5.24442661,28.0502523 5.78332569,27.2297936 C6.32146789,26.4095872 6.09389908,25.3088303 5.27369266,24.7691743 C4.45474771,24.2307798 3.35247706,24.4583486 2.81357798,25.2780505 C2.2746789,26.0990138 2.50224771,27.2012844 3.32295872,27.7401835" id="Fill-13"></path>
                        <path d="M9.0515367,17.8252982 C8.67461009,17.5772936 8.16901376,17.6822477 7.92176606,18.0596789 C7.67451835,18.4358486 7.7787156,18.9411927 8.15538991,19.1894495 C8.53105505,19.4359404 9.03715596,19.3309862 9.28440367,18.9548165 C9.53240826,18.5773853 9.42821101,18.0720413 9.0515367,17.8252982" id="Fill-14"></path>
                        <path d="M4.81451835,19.8345642 C5.32743119,20.1728899 6.01896789,20.0293349 6.35678899,19.5156651 C6.69561927,18.9999771 6.55181193,18.308945 6.0381422,17.9711239 C5.52447248,17.6333028 4.83344037,17.7763532 4.4943578,18.2912844 C4.1562844,18.8049541 4.29933486,19.4972477 4.81451835,19.8345642" id="Fill-15"></path>
                        <path d="M5.8887844,15.4958716 C6.91158257,16.1677294 8.28633028,15.8823853 8.95793578,14.860344 C9.63055046,13.8370413 9.34697248,12.4615367 8.32366972,11.788922 C7.29986239,11.1173165 5.92486239,11.402156 5.2525,12.4254587 C4.5806422,13.4472477 4.86497706,14.8227523 5.8887844,15.4958716" id="Fill-16"></path>
                        <path d="M10.9344037,12.8737844 C11.5865826,13.3016743 12.4640596,13.1202752 12.8924541,12.4675917 C13.3211009,11.8156651 13.1404587,10.9374312 12.4872706,10.5090367 C11.8350917,10.0803899 10.9571101,10.2615367 10.5284633,10.9142202 C10.0993119,11.5669037 10.2817202,12.4443807 10.9344037,12.8737844" id="Fill-17"></path>
                        <path d="M13.3231193,7.62834862 C13.8087844,7.94724771 14.4574312,7.81227064 14.7768349,7.32786697 C15.0952294,6.84422018 14.9602523,6.19431193 14.475344,5.87541284 C13.991445,5.55802752 13.3415367,5.69224771 13.0233945,6.17665138 C12.7052523,6.66155963 12.8402294,7.31020642 13.3231193,7.62834862" id="Fill-18"></path>
                        <path d="M18.154289,9.85837156 C18.9131881,10.3569037 19.9309404,10.1449771 20.4289679,9.38607798 C20.9282569,8.6271789 20.7186009,7.60942661 19.958945,7.11013761 C19.2008028,6.61211009 18.1820413,6.82252294 17.6827523,7.58142202 C17.1839679,8.3403211 17.3951376,9.35958716 18.154289,9.85837156" id="Fill-19"></path>
                        <path d="M18.2120642,2.67481651 C18.8652523,3.10396789 19.7417202,2.9228211 20.1708716,2.27013761 C20.6000229,1.61745413 20.4181193,0.741238532 19.7654358,0.312087156 C19.1119954,-0.11706422 18.2352752,0.0640825688 17.8061239,0.716766055 C17.3782339,1.36944954 17.5593807,2.24616972 18.2120642,2.67481651" id="Fill-20"></path>
                        <path d="M24.1972248,4.84529817 C25.1551835,5.47477064 26.4401147,5.2091055 27.0688303,4.25266055 C27.5777064,3.47811927 27.4987385,2.48610092 26.9434404,1.80415138 C27.1826147,1.78220183 27.4129587,1.65958716 27.5544954,1.44311927 C27.8025,1.06619266 27.6977982,0.560848624 27.320367,0.313348624 C26.9449541,0.0653440367 26.4386009,0.170298165 26.1913532,0.54646789 C26.063945,0.741995413 26.0298853,0.968807339 26.0788303,1.17795872 C25.1892431,0.834587156 24.1480275,1.1431422 23.6018119,1.97520642 C22.9736009,2.93165138 23.2392661,4.21658257 24.1972248,4.84529817" id="Fill-21"></path>
                        <path d="M29.5698165,8.24974771 C30.3287156,8.74928899 31.3467202,8.53786697 31.8455046,7.77896789 C32.3432798,7.02082569 32.1336239,6.00080275 31.3739679,5.50277523 C30.6150688,5.00424312 29.5970642,5.21667431 29.0990367,5.97431193 C28.6002523,6.73396789 28.8109174,7.75172018 29.5698165,8.24974771" id="Fill-22"></path>
                        <path d="M32.5779128,3.06713303 C33.336055,3.56440367 34.3545642,3.35474771 34.8533486,2.59584862 C35.352133,1.83669725 35.140711,0.818944954 34.3825688,0.320917431 C33.6236697,-0.177866972 32.6049083,0.0327981651 32.1063761,0.791697248 C31.6083486,1.54933486 31.8195183,2.56860092 32.5779128,3.06713303" id="Fill-23"></path>
                        <path d="M36.1778899,5.53834862 C36.6620413,5.85649083 37.3122018,5.72151376 37.6295872,5.23837156 C37.9484862,4.75396789 37.8135092,4.10481651 37.3298624,3.78591743 C36.8459633,3.46853211 36.196055,3.60275229 35.8774083,4.08791284 C35.5597706,4.57155963 35.6947477,5.21995413 36.1778899,5.53834862" id="Fill-24"></path>
                        <path d="M43.2516972,12.7993578 C42.5990138,12.3702064 41.7212844,12.5521101 41.2928899,13.2040367 C40.8629817,13.8574771 41.0456422,14.7349541 41.6980734,15.162844 C42.3510092,15.5919954 43.2277294,15.4108486 43.6563761,14.7574083 C44.086789,14.1042202 43.9043807,13.2280046 43.2516972,12.7993578" id="Fill-25"></path>
                        <path d="M6.55786697,40.7983945 C5.90442661,40.3692431 5.02694954,40.5516514 4.59779817,41.2045872 C4.16864679,41.8572706 4.35130734,42.7339908 5.00399083,43.1631422 C5.65642202,43.5925459 6.53263761,43.4103899 6.96178899,42.7579587 C7.39094037,42.1052752 7.20979358,41.2277982 6.55786697,40.7983945" id="Fill-26"></path>
                        <path d="M1.74107798,37.3661927 C1.25743119,37.0488073 0.608279817,37.1827752 0.289380734,37.6674312 C-0.0287614679,38.1523394 0.106720183,38.8009862 0.589105505,39.1183716 C1.07426606,39.4385321 1.72417431,39.3043119 2.04231651,38.8191514 C2.36045872,38.3347477 2.22548165,37.6848394 1.74107798,37.3661927" id="Fill-27"></path>
                        <path d="M40.5168349,15.1908486 C40.3124771,15.0566284 40.0917202,14.9721101 39.8669266,14.9269495 L39.8765138,14.9256881 C39.8765138,14.9256881 39.4062385,14.8891055 39.435,14.4216055 C39.4990826,14.3706422 39.5588761,14.3113532 39.6065596,14.2381881 C39.8533028,13.8610092 39.7498624,13.3561697 39.3724312,13.1081651 C38.9962615,12.861422 38.4894037,12.9651147 38.2426606,13.3425459 C37.994656,13.7184633 38.100367,14.2248165 38.4757798,14.4720642 C38.5547477,14.5222706 38.6380046,14.5550688 38.7237844,14.5782798 C38.7305963,14.5966972 38.7406881,14.6143578 38.7570872,14.6315138 C38.9213303,14.790711 38.8511927,14.9541972 38.7972018,15.0361927 C38.5724083,15.1300459 38.3619954,15.2635092 38.1856422,15.4449083 C38.0799312,15.268555 37.9346101,15.1138991 37.7522018,14.9938073 C37.3924312,14.7569037 36.966055,14.7077064 36.5802982,14.8179587 C36.7841514,13.9896789 36.4619725,13.0882339 35.7068578,12.5924771 C35.4583486,12.4294954 35.1878899,12.3273165 34.9113761,12.2808945 C35.0228899,12.191078 35.1210321,12.0833486 35.204289,11.9579587 C35.341789,11.7480505 35.4106651,11.513922 35.4263073,11.2795413 C35.4275688,11.2808028 35.4318578,11.2848394 35.4318578,11.2848394 C35.4318578,11.2850917 35.6934862,10.2474083 36.5401835,10.652844 C37.2978211,11.1513761 38.3175917,10.9414679 38.8163761,10.1825688 C39.3151606,9.42366972 39.1032339,8.4031422 38.3463532,7.90486239 C37.5859404,7.40633028 36.5669266,7.61825688 36.0678899,8.37715596 C35.8847248,8.65644495 35.7997018,8.97004587 35.7997018,9.28061927 L35.7981881,9.2791055 L35.7981881,9.29701835 L35.7981881,9.29954128 C35.7981881,9.43174312 35.7669037,10.192156 34.9643578,10.1280734 L34.9603211,10.1280734 C34.9070872,10.0831651 34.8573853,10.0375 34.7996101,9.99940367 C34.1802294,9.59245413 33.361789,9.73575688 32.9116972,10.3066972 C32.7883257,10.0231193 32.5844725,9.77057339 32.3066972,9.58841743 C31.5470413,9.08912844 30.5290367,9.29954128 30.0310092,10.0586927 C29.9480046,10.185344 29.8859404,10.3195642 29.841789,10.4578211 C29.8165596,10.4394037 29.7920872,10.4209862 29.7661009,10.4033257 C29.3546101,10.1333716 28.8669266,10.073578 28.4266743,10.1949312 C28.5119495,10.1048624 28.591422,10.0069725 28.6623165,9.89924312 C29.2905275,8.94254587 29.0248624,7.65761468 28.0669037,7.0281422 C27.1104587,6.40018349 25.8240138,6.66584862 25.196055,7.62229358 C24.8647936,8.12713303 24.7845642,8.72330275 24.9208028,9.26573394 C24.1038761,8.88199541 23.1105963,9.1456422 22.6009633,9.92245413 C22.2813073,10.4073624 22.2263073,10.9866284 22.3918119,11.4987844 C22.4061927,11.5411697 22.4203211,11.5833028 22.4359633,11.6208945 C22.4558945,11.6698394 22.4796101,11.7167661 22.503578,11.7644495 C22.8469495,12.4062844 23.3886239,12.2523853 23.7612615,12.4812156 C23.7637844,12.4847477 23.7665596,12.4880275 23.7693349,12.4908028 C24.123555,12.6802752 24.3675229,13.049633 24.3675229,13.4800459 C24.3675229,14.1019495 23.8634404,14.6055275 23.2412844,14.6055275 C22.6193807,14.6055275 22.1150459,14.1019495 22.1150459,13.4800459 C22.1150459,13.4215138 22.1233716,13.3662615 22.131445,13.3110092 C22.1329587,13.3049541 22.131445,13.2994037 22.131445,13.2933486 C22.1995642,12.6174541 21.963922,12.3356422 21.8604817,12.2443119 C21.8440826,12.2324541 21.8291972,12.2183257 21.8120413,12.2074771 C21.5816972,12.0555963 21.322844,11.9819266 21.0660092,11.977133 L21.0647477,11.9758716 C21.0591972,11.9751147 21.0551606,11.9758716 21.0511239,11.9758716 L21.0443119,11.9758716 C20.9855275,11.9703211 20.9229587,11.977133 20.8520642,11.9920183 C20.730711,12.0084174 20.612133,12.0384404 20.497844,12.0846101 C20.3351147,12.1269954 20.1544725,12.1638303 19.9609633,12.1557569 C19.6794037,12.1454128 19.4281193,11.8837844 19.0562385,11.7392202 C19.0547248,11.7387156 19.0534633,11.7392202 19.0522018,11.7392202 C18.333922,11.4347018 17.4816743,11.6738761 17.0381422,12.3485092 C16.8188991,12.6815367 16.7411927,13.0645183 16.7828211,13.4308486 C16.7828211,13.4356422 16.7808028,13.4379128 16.7813073,13.4424541 C16.7848394,13.4628899 16.7893807,13.4800459 16.7929128,13.4997248 C16.8325229,13.7540367 16.9304128,13.9952294 17.0838073,14.2076606 C17.111055,14.2989908 17.056055,14.3310321 16.9551376,14.3269954 C16.9455505,14.3290138 16.9304128,14.331789 16.9190596,14.3338073 C16.8610321,14.3398624 16.8045183,14.3522248 16.7480046,14.3655963 C16.6990596,14.3751835 16.6470872,14.386789 16.5913303,14.4024312 C16.4795642,14.4296789 16.4079128,14.4761009 16.3549312,14.5141972 C16.3261697,14.5305963 16.2996789,14.5497706 16.2724312,14.5674312 C16.2055734,14.5919037 16.0885092,14.5863532 16.0393119,14.3398624 C16.019633,14.2909174 16.0012156,14.2391972 15.9827982,14.1884862 C15.9727064,14.1607339 15.9631193,14.1327294 15.9515138,14.1054817 C15.9346101,14.0593119 15.9154358,14.0169266 15.895,13.9813532 C15.895,13.9800917 15.8942431,13.9808486 15.8937385,13.9793349 C15.7683486,13.7376376 15.5824083,13.5236927 15.338945,13.3629817 C14.5787844,12.8641972 13.5595183,13.075367 13.0614908,13.8335092 C12.5634633,14.5926606 12.7733716,15.6124312 13.5322706,16.1112156 C13.8852294,16.3428211 14.293945,16.4177523 14.6797018,16.3592202 L14.7246101,16.3892431 C14.9330046,16.2779817 15.1686468,16.2093578 15.4209404,16.2093578 C16.2424083,16.2093578 16.9087156,16.8756651 16.9087156,17.697133 C16.9087156,18.5188532 16.2424083,19.1859174 15.4209404,19.1859174 C14.5984633,19.1859174 13.932156,18.5188532 13.932156,17.697133 C13.932156,17.6890596 13.9349312,17.6809862 13.9349312,17.6713991 C13.8335092,17.2475459 13.5784404,16.8592661 13.1861239,16.6016743 C12.3659174,16.0627752 11.2636468,16.2911009 10.7260092,17.1113073 C10.1866055,17.9315138 10.4154358,19.0317661 11.2348853,19.5706651 C11.4801147,19.7316284 11.7500688,19.8229587 12.0245642,19.8529817 C11.4531193,19.8570183 10.8963073,20.1322706 10.555711,20.6398853 C10.4976835,20.5927064 10.437133,20.5470413 10.3753211,20.5054128 C9.35176606,19.8338073 7.97626147,20.1186468 7.3031422,21.1419495 C6.63204128,22.1637385 6.91688073,23.54 7.94018349,24.2118578 C8.27825688,24.4338761 8.65745413,24.5509404 9.03639908,24.5701147 C8.97307339,24.6410092 8.9137844,24.7146789 8.86004587,24.7956651 C8.32038991,25.6166284 8.54795872,26.7168807 9.36690367,27.2557798 C9.59295872,27.402867 9.83970183,27.4873853 10.0889679,27.5234633 C10.6652064,27.9200688 10.7320642,28.6380963 10.4207339,29.1489908 C10.3437844,29.2519266 9.75518349,29.9727294 8.86811927,29.3717661 C8.73061927,29.2057569 8.56915138,29.0556422 8.37841743,28.9310092 C7.35561927,28.2586468 5.98213303,28.5434862 5.31052752,29.5672936 C4.79938073,30.3446101 4.84050459,31.3217431 5.33979358,32.0433028 C4.99844037,31.9499541 4.63740826,31.9908257 4.32658257,32.1475 C4.37704128,31.5634404 4.11541284,30.9730734 3.59291284,30.6294495 C2.83325688,30.1309174 1.81474771,30.342844 1.31672018,31.1009862 C0.81793578,31.8598853 1.02784404,32.8776376 1.78800459,33.376422 C2.33800459,33.7384633 3.02550459,33.7245872 3.55279817,33.4019037 C3.55052752,33.8643578 3.77279817,34.3167202 4.18908257,34.5899541 C4.84176606,35.0183486 5.71848624,34.8372018 6.14713303,34.1845183 C6.18800459,34.1216972 6.22055046,34.0583716 6.25057339,33.9937844 L6.25133028,33.9937844 C6.31667431,33.8492202 6.35552752,33.697844 6.37066514,33.5469725 C6.57830275,33.0537385 6.95094037,32.9929358 7.11316514,32.9929358 C7.13360092,32.9934404 7.1540367,32.995711 7.17447248,32.995711 C7.18607798,32.9962156 7.19415138,32.9977294 7.19415138,32.9977294 L7.18809633,32.9962156 C7.39094037,32.9934404 7.59277523,32.9613991 7.78754587,32.9051376 L7.78754587,32.9086697 C7.79158257,32.9051376 7.79561927,32.9036239 7.79990826,32.9008486 C7.96213303,32.8534174 8.11603211,32.7865596 8.26311927,32.7020413 C8.71699541,32.6255963 8.85045872,33.0398624 8.73389908,33.3928211 C8.7331422,33.3940826 8.73188073,33.3948394 8.73188073,33.3955963 C8.68545872,33.4662385 8.65165138,33.5399083 8.61733945,33.6148394 C8.61204128,33.6219037 8.60800459,33.6284633 8.60396789,33.6352752 C8.54997706,33.6993578 8.53433486,33.7588991 8.54114679,33.8151606 C8.33123853,34.4963532 8.57646789,35.2595413 9.20139908,35.671789 C9.50995413,35.8741284 9.86013761,35.9573853 10.2014908,35.9359404 C10.3205734,35.8945642 10.4474771,35.8673165 10.5809404,35.8673165 C10.6647018,35.8415826 10.7472018,35.8120642 10.8261697,35.773211 C10.8133028,35.8113073 10.8044725,35.8511697 10.7948853,35.8877523 C11.325711,35.9886697 11.7281193,36.4531422 11.7281193,37.0139908 C11.7281193,37.6469954 11.2136927,38.1599083 10.5809404,38.1599083 C10.0766055,38.1599083 9.65376147,37.8321789 9.50036697,37.3803211 C9.46353211,37.3142202 9.42896789,37.2347477 9.39818807,37.1338303 C9.38733945,36.9738761 9.35454128,36.8184633 9.29853211,36.6686009 C9.29752294,36.661789 9.29600917,36.6554817 9.29449541,36.6481651 C9.29449541,36.6481651 9.29272936,36.6466514 9.29045872,36.6453899 C9.17213303,36.3386009 8.96222477,36.0633486 8.6665367,35.868578 C7.90763761,35.3713073 6.88837156,35.5824771 6.39110092,36.3408716 C5.89155963,37.0990138 6.10222477,38.1182798 6.86112385,38.6170642 C7.50623853,39.041422 8.33805046,38.9473165 8.87972477,38.4439908 C8.88981651,38.4359174 8.90091743,38.427844 8.91176606,38.4172477 C8.91933486,38.4099312 8.92665138,38.4031193 8.93497706,38.3950459 C8.93901376,38.3907569 8.94305046,38.3879817 8.94708716,38.3841972 C9.3341055,37.9684174 9.45066514,38.2477064 9.48548165,38.4972248 C9.25387615,39.3391284 9.57529817,40.2718578 10.3450459,40.7779587 C10.377844,40.7999083 10.4126606,40.8188303 10.4459633,40.8380046 C10.2580046,40.957844 10.0930046,41.116789 9.96357798,41.3148394 C9.46580275,42.0732339 9.6762156,43.0925 10.4343578,43.5902752 C11.1879587,44.0862844 12.1948624,43.8821789 12.6969266,43.1394266 C12.6956651,43.729289 12.9817661,44.3098165 13.5133486,44.6579817 C14.3484404,45.2072248 15.4698853,44.9748624 16.0188761,44.1387615 C16.2199541,43.7212156 16.151078,43.3955046 16.151078,43.3955046 L16.1621789,43.3997936 C16.1566284,43.3642202 16.1518349,43.3273853 16.1518349,43.2908028 C16.1518349,42.9063073 16.4626606,42.5957339 16.8461468,42.5957339 C17.2288761,42.5957339 17.5397018,42.9063073 17.5397018,43.2908028 C17.5397018,43.5168578 17.4286927,43.7171789 17.259656,43.8438303 L17.2604128,43.8450917 L17.2576376,43.8458486 C17.1806881,43.9031193 17.092133,43.9460092 16.9960092,43.9669495 C16.9359633,44.0005046 16.8718807,44.0406193 16.8113303,44.0877982 C16.7868578,44.1094954 16.7628899,44.1342202 16.7399312,44.1571789 C16.7056193,44.1892202 16.6687844,44.2187385 16.6415367,44.2553211 C16.5789679,44.3262156 16.5196789,44.4003899 16.4674541,44.4816284 C16.2287844,44.843922 16.1225688,45.2549083 16.1349312,45.6588303 C15.9318349,46.7706881 15.1517431,46.2585321 15.1517431,46.2585321 C14.6686009,45.939633 14.0186927,46.0743578 13.6997936,46.5595183 C13.3824083,47.0431651 13.5173853,47.6930734 14.0010321,48.010711 C14.4846789,48.3293578 15.1361009,48.1958945 15.4534862,47.7107339 C15.4835092,47.666078 15.5052064,47.6181422 15.527156,47.570711 L15.5284174,47.5744954 C15.5284174,47.5744954 15.5304358,47.5676835 15.5339679,47.5568349 C15.546078,47.5283257 15.5571789,47.501078 15.5665138,47.4723165 C15.6681881,47.2291055 15.9848165,46.6563991 16.6390138,46.9409862 C16.7573394,47.0752064 16.8938303,47.1970642 17.0505046,47.3005046 C17.2288761,47.4178211 17.4196101,47.5038532 17.6158945,47.5591055 C17.5818349,47.5949312 17.5497936,47.6347936 17.5212844,47.6769266 C17.2740367,48.0536009 17.3787385,48.5599541 17.7549083,48.8077064 C18.1315826,49.0544495 18.6371789,48.9494954 18.8844266,48.5725688 C19.1024083,48.2415596 19.0466514,47.8103899 18.7726606,47.543211 C19.2093807,47.4082339 19.6006881,47.1269266 19.869633,46.7177064 C19.965,46.5718807 20.037156,46.4152064 20.093922,46.2557569 C20.2594266,46.6276376 20.5306422,46.9581422 20.8949541,47.1970642 C21.9190138,47.8701835 23.2925,47.5861009 23.9641055,46.563555 C24.0526606,46.4275688 24.1222936,46.2883028 24.1783028,46.1427294 C24.2353211,45.9913532 24.272156,45.8470413 24.2981422,45.7118119 C18.048578,43.5577294 13.5567431,37.6290826 13.5567431,30.6483716 C13.5567431,21.8491284 20.6913532,14.7152752 29.4900917,14.7152752 C33.4410092,14.7152752 37.0518349,16.1561239 39.8369037,18.5365138 C40.5461009,18.1971789 41.4944725,17.0616055 41.3193807,17.0472248 C41.4419954,16.3455963 41.1498394,15.607133 40.5168349,15.1908486" id="Fill-28"></path>
                    </g>
                    <path d="M127.292202,22.7402294 C125.223142,20.6451835 122.712821,19.5830275 119.787982,19.4795872 L106.159335,19.4795872 L103.402271,28.4642661 L100.660596,19.535344 L100.677752,19.4795872 L92.565,19.4795872 L92.5819037,19.535344 L89.8417431,28.4642661 L87.0831651,19.4795872 L79.0044725,19.4795872 L80.2265826,23.4622936 C79.9001147,23.0515596 79.5527064,22.6494037 79.1598853,22.2659174 C76.8801606,19.9306881 74.0733945,18.7628211 70.766078,18.7600459 L70.7539679,18.7600459 C67.4708716,18.7600459 64.6605734,19.9299312 62.3503211,22.2659174 C61.3527523,23.2511239 60.5822477,24.3329587 60.0105505,25.4980505 C59.7408486,24.0508945 59.0568807,22.7790826 57.9430046,21.6856422 C56.6247706,20.3406651 55.0469266,19.6150688 53.2092202,19.4863991 L40.7880505,19.4863991 C43.636445,22.363555 45.3969495,26.3197706 45.3969495,30.6882339 C45.3969495,34.9149083 43.7461927,38.7545642 41.0577523,41.6049771 L48.6311009,41.6049771 L48.6311009,35.6288991 L52.0443807,41.6049771 L60.1939679,41.6049771 L56.2097477,34.5427752 C56.4945872,34.3358945 57.0382798,33.922133 57.7891055,33.2757569 C58.2291055,32.9079128 58.5969495,32.4643807 58.9097936,31.9572706 C59.1794954,34.6941514 60.3241514,37.0737844 62.3503211,39.0762385 C64.6605734,41.4132339 67.4708716,42.5541055 70.7539679,42.5541055 C74.0663303,42.5541055 76.8766284,41.4132339 79.1598853,39.0762385 C81.3480275,36.9395642 82.4994954,34.3684404 82.6624771,31.3966743 L85.795711,41.6064908 L93.8865138,41.6064908 L96.6213761,32.6967431 L99.3557339,41.6064908 L107.447041,41.6064908 L112.10211,26.4383486 L112.10211,41.6057339 L119.787982,41.6057339 C119.810436,41.6057339 119.833647,41.6024541 119.856606,41.6024541 L119.858624,41.6024541 L119.862156,41.6024541 C122.730482,41.5083486 125.240298,40.4497248 127.292202,38.3718349 C129.492959,36.223555 130.554358,33.6095413 130.554358,30.5557798 C130.554358,27.5010092 129.492959,24.9147477 127.292202,22.7402294 L127.292202,22.7402294 Z M52.9251376,27.7911468 L52.9251376,27.8416055 L52.9251376,27.9468119 L52.9251376,28.0502523 C52.8726606,28.4630046 52.6915138,28.7995642 52.3549541,29.135367 C52.0443807,29.4469495 51.6573624,29.6538303 51.1913761,29.6538303 L48.6459862,29.6538303 C48.6419495,29.6525688 48.6358945,29.6518119 48.6316055,29.6518119 L48.6311009,29.6518119 L48.6311009,25.9019725 L51.1913761,25.9019725 C51.6573624,25.9279587 52.0443807,26.1091055 52.3549541,26.4449083 C52.7439908,26.808211 52.8986468,27.1957339 52.9251376,27.7136927 L52.9251376,27.7911468 L52.9251376,27.7911468 Z M73.7877982,33.6763991 C72.953211,34.5394954 71.980367,34.9572936 70.7539679,34.9572936 C69.5863532,34.9572936 68.5559862,34.5394954 67.7494037,33.6763991 C66.8868119,32.8695642 66.4700229,31.8394495 66.4700229,30.6703211 C66.4700229,29.4747018 66.8868119,28.4723394 67.7494037,27.61 C68.5559862,26.7741514 69.5863532,26.357867 70.7539679,26.357867 C71.980367,26.357867 72.953211,26.7741514 73.7877982,27.61 C74.6228899,28.4723394 75.0691972,29.4747018 75.0691972,30.6703211 C75.0691972,31.8394495 74.6228899,32.8695642 73.7877982,33.6763991 L73.7877982,33.6763991 Z M122.427982,33.5318349 C121.625183,34.3601147 120.615505,34.7738761 119.503142,34.7738761 L119.193326,34.7738761 L119.193326,26.3634174 C119.27078,26.3374312 119.400963,26.3374312 119.503142,26.3374312 C120.615505,26.3374312 121.625183,26.7516972 122.427982,27.5799771 C123.256261,28.4072477 123.670023,29.3909404 123.670023,30.5557798 C123.670023,31.7196101 123.256261,32.729289 122.427982,33.5318349 L122.427982,33.5318349 Z" id="Fill-29" fill="#FFFFFF"></path>
                </g>
            </g>
        </g>
    </g>
</svg>