<?xml version="1.0" encoding="utf-8"?>
<!-- Generator: Adobe Illustrator 16.2.1, SVG Export Plug-In . SVG Version: 6.00 Build 0)  -->
<!DOCTYPE svg PUBLIC "-//W3C//DTD SVG 1.1//EN" "http://www.w3.org/Graphics/SVG/1.1/DTD/svg11.dtd">
<svg version="1.1" id="Layer_1" xmlns="http://www.w3.org/2000/svg" xmlns:xlink="http://www.w3.org/1999/xlink" x="0px" y="0px"
	 width="120.241px" height="51.075px" viewBox="0 0 120.241 51.075" enable-background="new 0 0 120.241 51.075"
	 xml:space="preserve">
<g>
	<g>
		<rect x="37.684" y="44.374" fill="#231F1F" width="1.36" height="6.004"/>
		<polygon fill="#231F1F" points="52.863,50.378 52.863,45.559 51.027,45.559 51.027,44.374 56.055,44.374 56.055,45.559 
			54.222,45.559 54.222,50.378 		"/>
		<polygon fill="#231F1F" points="59.305,50.378 59.305,44.374 63.307,44.374 63.307,45.559 60.664,45.559 60.664,46.716 
			62.933,46.716 62.933,47.904 60.664,47.904 60.664,49.191 63.462,49.191 63.462,50.378 		"/>
		<polygon fill="#231F1F" points="93.943,50.378 93.943,45.559 92.103,45.559 92.103,44.374 97.131,44.374 97.131,45.559 
			95.299,45.559 95.299,50.378 		"/>
		<rect x="100.625" y="44.374" fill="#231F1F" width="1.359" height="6.004"/>
		<polygon fill="#231F1F" points="114.207,50.378 114.207,44.374 118.213,44.374 118.213,45.559 115.567,45.559 115.567,46.716 
			117.835,46.716 117.835,47.904 115.567,47.904 115.567,49.191 118.366,49.191 118.366,50.378 		"/>
		<path fill="#231F1F" d="M86.249,50.49c-1.717,0-3.109-1.394-3.109-3.104c0-1.712,1.393-3.109,3.109-3.109
			c1.32,0,2.499,0.844,2.933,2.093l0.073,0.21h-1.366L87.844,46.5c-0.322-0.581-0.935-0.94-1.595-0.94
			c-1.009,0-1.829,0.818-1.829,1.824c0,1.007,0.82,1.826,1.829,1.826c0.66,0,1.272-0.359,1.595-0.94l0.045-0.08h1.366l-0.073,0.208
			C88.749,49.65,87.569,50.49,86.249,50.49z"/>
		<polygon fill="#231F1F" points="46.98,44.374 46.98,48.063 44.415,44.374 43.048,44.374 43.048,50.378 44.415,50.378 
			44.415,46.68 46.96,50.378 46.98,50.374 46.98,50.378 48.343,50.378 48.343,44.374 		"/>
		<path fill="#231F1F" d="M68.522,45.736h0.92c0.46,0.007,0.833,0.38,0.833,0.844c0,0.46-0.373,0.837-0.833,0.841h-0.92V45.736z
			 M70.016,50.378h1.642l-1.273-1.816c0.74-0.355,1.256-1.103,1.256-1.981c0-1.214-0.979-2.196-2.188-2.206H67.16v6.004h1.362
			v-1.591h0.375L70.016,50.378z"/>
		<path fill="#231F1F" d="M77.015,47.711l0.477-1.201l0.477,1.201H77.015z M79.027,50.378h1.48l-2.381-6.004h-1.263l-2.382,6.004
			h1.477l0.546-1.374h1.977L79.027,50.378z"/>
		<polygon fill="#231F1F" points="109.619,44.374 108.087,48.239 106.551,44.374 105.072,44.374 107.458,50.378 108.716,50.378 
			111.099,44.374 		"/>
	</g>
	<g>
		<path fill="#231F1F" d="M24.222,30.931c0.768,0.768,1.687,1.155,2.791,1.155c1.103,0,2.048-0.387,2.791-1.155
			c0.335-0.331,0.587-0.691,0.796-1.076h7.293c-0.357,2.303-1.381,4.326-3.148,6.042c-2.124,2.144-4.703,3.195-7.716,3.198h-0.08
			c-0.093,0-0.19-0.003-0.28-0.008c-1.964-0.064-3.803-0.636-5.379-1.58c-0.707-0.442-1.377-0.979-2.01-1.611
			c-2.151-2.124-3.199-4.71-3.199-7.732c0-3.019,1.047-5.606,3.199-7.729c2.148-2.147,4.703-3.22,7.719-3.227l0.059,0.004h0.011
			c0.388,0.011,0.756,0.028,1.117,0.055c2.521,0.249,4.717,1.3,6.561,3.167c1.767,1.714,2.814,3.714,3.147,6.042h-7.271
			c-0.231-0.412-0.483-0.792-0.818-1.127c-0.743-0.768-1.688-1.151-2.791-1.151c-1.104,0-2.023,0.383-2.79,1.151
			c-0.744,0.796-1.128,1.72-1.128,2.816C23.094,29.24,23.479,30.191,24.222,30.931z"/>
	</g>
	<g>
		<path fill="#018075" d="M2.95,25.471c0.754,0.495,1.768,0.283,2.263-0.47c0.495-0.754,0.287-1.767-0.467-2.262
			c-0.753-0.495-1.767-0.287-2.264,0.467C1.986,23.963,2.197,24.973,2.95,25.471z"/>
		<path fill="#018075" d="M8.22,16.351c-0.349-0.228-0.813-0.131-1.041,0.214c-0.228,0.346-0.131,0.813,0.214,1.038
			c0.346,0.228,0.813,0.131,1.038-0.214C8.664,17.043,8.567,16.579,8.22,16.351z"/>
		<path fill="#018075" d="M4.324,18.198c0.469,0.312,1.106,0.18,1.417-0.294c0.311-0.473,0.18-1.11-0.293-1.417
			c-0.474-0.312-1.108-0.18-1.421,0.294C3.716,17.251,3.85,17.891,4.324,18.198z"/>
		<path fill="#018075" d="M5.313,14.207c0.94,0.619,2.202,0.356,2.822-0.584c0.619-0.941,0.359-2.207-0.586-2.822
			c-0.94-0.62-2.206-0.36-2.826,0.581C4.109,12.323,4.367,13.589,5.313,14.207z"/>
		<path fill="#018075" d="M9.952,11.797c0.598,0.395,1.408,0.225,1.799-0.374c0.398-0.602,0.232-1.408-0.369-1.802
			C10.78,9.227,9.974,9.394,9.58,9.992C9.181,10.593,9.351,11.402,9.952,11.797z"/>
		<path fill="#018075" d="M12.149,6.972c0.449,0.294,1.044,0.17,1.337-0.28c0.294-0.443,0.171-1.041-0.275-1.334
			c-0.446-0.291-1.045-0.17-1.339,0.277C11.583,6.081,11.707,6.678,12.149,6.972z"/>
		<circle fill="#018075" cx="17.424" cy="7.759" r="1.512"/>
		<path fill="#018075" d="M16.649,2.414c0.601,0.395,1.407,0.229,1.802-0.373c0.394-0.598,0.224-1.404-0.374-1.798
			c-0.6-0.398-1.406-0.231-1.801,0.369C15.881,1.215,16.047,2.021,16.649,2.414z"/>
		<path fill="#018075" d="M22.154,4.414c0.881,0.578,2.064,0.333,2.643-0.546c0.466-0.713,0.394-1.625-0.114-2.251
			c0.216-0.021,0.43-0.136,0.561-0.335c0.229-0.346,0.131-0.81-0.214-1.038c-0.346-0.227-0.813-0.131-1.038,0.214
			c-0.122,0.18-0.149,0.388-0.108,0.582c-0.816-0.315-1.774-0.035-2.276,0.732C21.026,2.653,21.271,3.833,22.154,4.414z"/>
		<path fill="#018075" d="M27.095,7.543c0.699,0.46,1.636,0.267,2.096-0.436c0.457-0.695,0.263-1.633-0.435-2.093
			c-0.7-0.46-1.633-0.263-2.093,0.436C26.203,6.149,26.398,7.087,27.095,7.543z"/>
		<path fill="#018075" d="M29.862,2.775c0.699,0.459,1.637,0.266,2.097-0.433c0.46-0.7,0.263-1.636-0.436-2.092
			c-0.694-0.46-1.632-0.266-2.093,0.432C28.973,1.381,29.167,2.318,29.862,2.775z"/>
		<path fill="#018075" d="M33.176,5.05c0.446,0.291,1.043,0.166,1.334-0.277c0.294-0.446,0.169-1.041-0.273-1.335
			c-0.445-0.293-1.044-0.168-1.338,0.277C32.609,4.161,32.733,4.755,33.176,5.05z"/>
		<path fill="#018075" d="M39.683,11.728c-0.602-0.395-1.407-0.229-1.802,0.373c-0.394,0.598-0.228,1.407,0.373,1.798
			c0.599,0.398,1.408,0.231,1.803-0.37C40.451,12.927,40.284,12.122,39.683,11.728z"/>
		<circle fill="#018075" cx="5.211" cy="38.569" r="1.301"/>
		<path fill="#018075" d="M1.495,34.323c-0.446-0.29-1.042-0.17-1.335,0.276c-0.294,0.446-0.17,1.045,0.273,1.335
			c0.449,0.298,1.043,0.173,1.337-0.273C2.066,35.215,1.941,34.618,1.495,34.323z"/>
		<path fill="#018075" d="M37.169,13.927c-0.19-0.125-0.394-0.201-0.597-0.242h0.006c0,0-0.433-0.034-0.404-0.464
			c0.059-0.048,0.114-0.104,0.156-0.172c0.229-0.346,0.131-0.809-0.215-1.038c-0.345-0.225-0.812-0.131-1.041,0.214
			c-0.225,0.346-0.128,0.812,0.215,1.042c0.076,0.045,0.148,0.076,0.228,0.096c0.007,0.017,0.016,0.035,0.031,0.048
			c0.152,0.149,0.089,0.301,0.038,0.374c-0.208,0.086-0.401,0.207-0.564,0.376c-0.096-0.163-0.228-0.304-0.398-0.416
			c-0.328-0.221-0.723-0.263-1.078-0.163c0.187-0.763-0.11-1.589-0.803-2.046c-0.229-0.149-0.476-0.246-0.732-0.288
			c0.104-0.083,0.193-0.181,0.27-0.298c0.128-0.189,0.19-0.407,0.208-0.623l0.004,0.003c0,0,0.238-0.955,1.016-0.581
			c0.699,0.46,1.636,0.267,2.097-0.432c0.46-0.699,0.266-1.636-0.434-2.097c-0.699-0.457-1.634-0.263-2.095,0.436
			c-0.17,0.256-0.246,0.543-0.246,0.831l-0.003,0.017c0,0.125-0.029,0.82-0.768,0.764l0,0c-0.053-0.045-0.098-0.086-0.149-0.121
			c-0.57-0.373-1.326-0.241-1.74,0.284c-0.114-0.26-0.301-0.494-0.557-0.66c-0.699-0.46-1.636-0.267-2.092,0.432
			c-0.078,0.118-0.136,0.238-0.177,0.37c-0.02-0.021-0.044-0.038-0.069-0.052c-0.377-0.249-0.826-0.305-1.231-0.193
			c0.079-0.083,0.152-0.174,0.217-0.27c0.578-0.878,0.336-2.064-0.55-2.642c-0.878-0.578-2.061-0.335-2.638,0.546
			c-0.308,0.467-0.381,1.014-0.252,1.511c-0.754-0.353-1.667-0.11-2.137,0.605c-0.294,0.446-0.342,0.979-0.19,1.449l0.039,0.111
			l0.062,0.134c0.319,0.588,0.816,0.449,1.159,0.657l0.007,0.012c0.329,0.172,0.55,0.512,0.55,0.909c0,0.57-0.463,1.034-1.034,1.034
			c-0.574,0-1.038-0.463-1.038-1.034c0-0.052,0.007-0.104,0.017-0.156V12.18c0.062-0.619-0.155-0.879-0.252-0.964l-0.045-0.035
			c-0.21-0.139-0.449-0.205-0.684-0.21c-0.008-0.004-0.012,0-0.015,0h-0.007c-0.055-0.004-0.112,0-0.176,0.014
			c-0.111,0.017-0.221,0.045-0.326,0.086c-0.148,0.039-0.318,0.073-0.495,0.066c-0.259-0.011-0.491-0.253-0.833-0.385h-0.003
			c-0.661-0.28-1.442-0.062-1.853,0.561c-0.202,0.308-0.271,0.657-0.235,0.996c0,0.004,0,0.007,0,0.01l0.01,0.052
			c0.038,0.234,0.128,0.456,0.266,0.65c0.028,0.086-0.023,0.114-0.116,0.11l-0.032,0.008c-0.056,0.007-0.104,0.017-0.16,0.032
			c-0.044,0.006-0.093,0.016-0.143,0.031c-0.103,0.028-0.169,0.069-0.217,0.104c-0.027,0.017-0.052,0.031-0.077,0.047
			c-0.062,0.025-0.169,0.017-0.214-0.207l-0.051-0.139l-0.032-0.08c-0.013-0.042-0.031-0.079-0.051-0.114
			c-0.114-0.225-0.286-0.418-0.512-0.566c-0.699-0.46-1.636-0.267-2.093,0.432c-0.46,0.699-0.267,1.635,0.433,2.096
			c0.325,0.214,0.699,0.279,1.055,0.229l0.042,0.028c0.19-0.105,0.408-0.167,0.64-0.167c0.758,0,1.369,0.612,1.369,1.366
			c0,0.757-0.611,1.37-1.369,1.37c-0.754,0-1.369-0.613-1.369-1.37l0.002-0.021c-0.093-0.39-0.328-0.747-0.688-0.985
			c-0.754-0.495-1.771-0.284-2.265,0.47c-0.493,0.754-0.282,1.767,0.47,2.262c0.226,0.148,0.474,0.231,0.727,0.259
			c-0.526,0.003-1.042,0.256-1.353,0.722c-0.05-0.042-0.11-0.083-0.166-0.121c-0.94-0.619-2.21-0.356-2.825,0.585
			c-0.619,0.94-0.355,2.206,0.585,2.822c0.31,0.207,0.66,0.311,1.01,0.332c-0.059,0.065-0.115,0.131-0.163,0.204
			c-0.499,0.758-0.287,1.767,0.465,2.265c0.208,0.135,0.434,0.214,0.665,0.246c0.53,0.367,0.592,1.027,0.305,1.498
			c-0.069,0.093-0.612,0.757-1.429,0.205c-0.128-0.153-0.272-0.291-0.449-0.404c-0.941-0.62-2.207-0.36-2.825,0.583
			c-0.467,0.716-0.429,1.612,0.027,2.276c-0.311-0.086-0.643-0.048-0.929,0.097c0.047-0.537-0.195-1.079-0.678-1.397
			c-0.695-0.457-1.636-0.263-2.093,0.436c-0.46,0.698-0.267,1.635,0.433,2.092c0.509,0.333,1.141,0.318,1.626,0.024
			c0,0.425,0.2,0.84,0.584,1.093c0.602,0.395,1.408,0.224,1.802-0.374c0.038-0.054,0.065-0.113,0.096-0.176
			c0.06-0.131,0.093-0.27,0.112-0.411c0.19-0.454,0.531-0.509,0.681-0.509l0.059,0.003h0.016H6.507
			c0.186-0.003,0.373-0.03,0.553-0.085v0.007l0.01-0.01c0.15-0.042,0.292-0.104,0.427-0.18c0.419-0.069,0.539,0.309,0.432,0.634
			v0.003c-0.046,0.065-0.073,0.135-0.107,0.2l-0.01,0.021c-0.051,0.059-0.066,0.113-0.059,0.166
			c-0.194,0.625,0.031,1.328,0.605,1.708c0.288,0.184,0.608,0.259,0.919,0.242c0.112-0.039,0.229-0.063,0.35-0.063
			c0.081-0.024,0.155-0.051,0.228-0.086c-0.014,0.035-0.021,0.069-0.028,0.104c0.488,0.093,0.858,0.519,0.858,1.038
			c0,0.581-0.475,1.053-1.059,1.053c-0.46,0-0.85-0.304-0.993-0.719c-0.034-0.059-0.065-0.134-0.093-0.224
			c-0.01-0.149-0.041-0.293-0.093-0.429v-0.021H8.439c-0.108-0.284-0.302-0.541-0.575-0.716c-0.696-0.456-1.631-0.263-2.092,0.433
			c-0.459,0.699-0.266,1.639,0.433,2.097c0.595,0.387,1.359,0.304,1.857-0.159l0.031-0.025l0.021-0.02l0.01-0.011
			c0.356-0.384,0.465-0.125,0.496,0.104C8.409,36.142,8.702,37,9.411,37.466c0.03,0.021,0.062,0.039,0.093,0.056
			c-0.176,0.111-0.325,0.256-0.441,0.436c-0.461,0.697-0.267,1.64,0.428,2.097c0.696,0.456,1.622,0.266,2.082-0.416
			c0,0.543,0.267,1.077,0.754,1.397c0.768,0.504,1.798,0.29,2.303-0.478c0.188-0.383,0.121-0.685,0.121-0.685l0.014,0.003
			c-0.006-0.03-0.014-0.066-0.014-0.101c0-0.353,0.288-0.64,0.644-0.64c0.348,0,0.636,0.287,0.636,0.64
			c0,0.208-0.104,0.393-0.26,0.509v0.004c-0.069,0.051-0.152,0.093-0.241,0.111c-0.056,0.03-0.114,0.068-0.17,0.11l-0.065,0.062
			c-0.032,0.031-0.067,0.058-0.091,0.093c-0.059,0.062-0.114,0.132-0.159,0.208c-0.222,0.333-0.319,0.713-0.308,1.082
			c-0.186,1.023-0.902,0.554-0.902,0.554c-0.447-0.294-1.043-0.169-1.338,0.273c-0.292,0.445-0.166,1.044,0.275,1.335
			c0.447,0.293,1.045,0.172,1.339-0.274c0.028-0.041,0.045-0.086,0.065-0.131l0.003,0.004l0.007-0.015
			c0.011-0.027,0.021-0.052,0.027-0.08c0.095-0.222,0.384-0.751,0.985-0.487c0.111,0.121,0.235,0.235,0.381,0.332
			c0.162,0.107,0.338,0.187,0.519,0.235c-0.032,0.034-0.062,0.073-0.086,0.111c-0.228,0.345-0.131,0.809,0.214,1.041
			c0.346,0.225,0.812,0.129,1.04-0.218c0.201-0.305,0.149-0.702-0.103-0.947c0.4-0.124,0.761-0.38,1.01-0.756
			c0.086-0.136,0.152-0.281,0.208-0.427c0.148,0.343,0.401,0.647,0.737,0.865c0.94,0.619,2.203,0.359,2.822-0.582
			c0.08-0.128,0.144-0.256,0.196-0.388c0.053-0.141,0.086-0.271,0.111-0.396c-5.751-1.981-9.884-7.436-9.884-13.854
			c0-8.095,6.564-14.655,14.66-14.655c3.634,0,6.957,1.324,9.52,3.514c0.651-0.312,1.524-1.359,1.363-1.37
			C38.02,14.989,37.75,14.311,37.169,13.927z"/>
	</g>
	<g>
		<path fill="#231F1F" d="M112.524,30.796c-0.736,0.764-1.663,1.144-2.691,1.144h-0.283v-7.735c0.07-0.023,0.191-0.023,0.283-0.023
			c1.028,0,1.955,0.379,2.691,1.141c0.765,0.761,1.145,1.667,1.145,2.739C113.669,29.13,113.289,30.06,112.524,30.796z
			 M67.775,30.931c-0.765,0.793-1.66,1.176-2.788,1.176c-1.076,0-2.023-0.383-2.767-1.176c-0.792-0.743-1.176-1.69-1.176-2.766
			c0-1.1,0.384-2.02,1.176-2.816c0.744-0.768,1.691-1.151,2.767-1.151c1.127,0,2.022,0.383,2.788,1.151
			c0.771,0.796,1.183,1.716,1.183,2.816C68.958,29.24,68.546,30.188,67.775,30.931z M48.582,25.516v0.049v0.096v0.093
			c-0.046,0.379-0.215,0.691-0.523,1c-0.284,0.287-0.644,0.477-1.073,0.477h-2.342l-0.013-0.004v-3.448h2.354
			c0.429,0.024,0.789,0.19,1.073,0.499c0.356,0.335,0.5,0.69,0.523,1.168V25.516z M116.999,20.871
			c-1.902-1.927-4.213-2.905-6.904-2.998H97.559l-2.537,8.266l-2.523-8.217l0.016-0.048h-0.029h-7.401h-0.031l0.016,0.048
			l-2.521,8.217l-2.535-8.266h-7.438l1.125,3.662c-0.297-0.377-0.618-0.747-0.982-1.099c-2.096-2.148-4.674-3.224-7.719-3.227
			h-0.004h-0.007c-3.022,0-5.61,1.079-7.733,3.227c-0.916,0.906-1.628,1.902-2.154,2.97c-0.245-1.328-0.875-2.496-1.901-3.503
			c-1.214-1.237-2.664-1.905-4.355-2.026H37.419c2.617,2.649,4.239,6.288,4.239,10.306c0,3.887-1.521,7.421-3.994,10.043h6.968v-5.5
			l3.143,5.5h7.495l-3.666-6.499c0.263-0.19,0.764-0.57,1.451-1.167c0.408-0.335,0.744-0.743,1.034-1.209
			c0.246,2.517,1.302,4.703,3.165,6.546c2.123,2.151,4.711,3.198,7.733,3.198c3.046,0,5.63-1.047,7.729-3.198
			c2.017-1.964,3.075-4.33,3.226-7.066l2.881,9.396h0.011h7.422h0.011l2.517-8.199l2.519,8.199h0.01h7.422h0.011l4.281-13.953v13.95
			h7.072l0.06-0.003h0.007c2.639-0.086,4.949-1.058,6.834-2.97c2.025-1.978,3.002-4.382,3.002-7.189
			C120.001,25.25,119.024,22.874,116.999,20.871z"/>
	</g>
</g>
</svg>
