<?xml version="1.0" encoding="utf-8"?>
<!-- Generator: Adobe Illustrator 16.2.1, SVG Export Plug-In . SVG Version: 6.00 Build 0)  -->
<!DOCTYPE svg PUBLIC "-//W3C//DTD SVG 1.1//EN" "http://www.w3.org/Graphics/SVG/1.1/DTD/svg11.dtd">
<svg version="1.1" id="Layer_1" xmlns="http://www.w3.org/2000/svg" xmlns:xlink="http://www.w3.org/1999/xlink" x="0px" y="0px"
	 width="30px" height="30px" viewBox="0 0 30 30" enable-background="new 0 0 30 30" xml:space="preserve">
<path fill="#FFFFFF" d="M19.471,15.2h-2.75v9.62H12.61V15.2h-2.06v-3.32h2.06V9.891c0-2.711,1.16-4.32,4.451-4.32h2.76v3.32H18.1
	c-1.289,0-1.369,0.459-1.369,1.33l-0.01,1.659h3.109L19.471,15.2z M15.005,0C6.714,0,0,6.71,0,15c0,8.289,6.714,15,15.005,15
	C23.286,30,30,23.289,30,15C30,6.71,23.286,0,15.005,0"/>
</svg>
