<?xml version="1.0" encoding="utf-8"?>
<!-- Generator: Adobe Illustrator 16.2.1, SVG Export Plug-In . SVG Version: 6.00 Build 0)  -->
<!DOCTYPE svg PUBLIC "-//W3C//DTD SVG 1.1//EN" "http://www.w3.org/Graphics/SVG/1.1/DTD/svg11.dtd">
<svg version="1.1" id="Layer_1" xmlns="http://www.w3.org/2000/svg" xmlns:xlink="http://www.w3.org/1999/xlink" x="0px" y="0px"
	 width="30px" height="30px" viewBox="0 0 30 30" enable-background="new 0 0 30 30" xml:space="preserve">
<g>
	<path fill="#FFFFFF" d="M19.334,18.129c-0.529,0-0.959-0.637-0.959-1.406c0-0.77,0.43-1.405,0.959-1.405s0.961,0.635,0.961,1.405
		C20.295,17.492,19.863,18.129,19.334,18.129 M15.297,20.053c-0.522,0-0.901-0.439-0.901-0.674c0-0.059,0.039-0.107,0.1-0.107
		c0.062,0,0.101,0.049,0.101,0.107c0,0.117,0.291,0.469,0.701,0.469c0.35,0,0.619-0.244,0.619-0.469c0-0.059,0.041-0.107,0.1-0.107
		c0.062,0,0.104,0.049,0.104,0.107C16.115,19.699,15.773,20.053,15.297,20.053 M15.287,18.188c0.188,0,0.35,0.156,0.35,0.352
		c0,0.188-0.16,0.344-0.35,0.344c-0.201,0-0.354-0.156-0.354-0.344C14.933,18.344,15.086,18.188,15.287,18.188 M11.465,18.129
		c-0.529,0-0.959-0.637-0.959-1.406c0-0.77,0.43-1.405,0.959-1.405c0.531,0,0.961,0.635,0.961,1.405
		C12.426,17.492,11.996,18.129,11.465,18.129 M22.271,16.742c0-1.492-0.697-3.427-3.438-3.427c-0.199,0-1.76,0.166-3.311,0.166
		c-1.737,0-3.537-0.166-3.816-0.166c-2.79,0-3.479,2.227-3.479,3.241c0,2.881,2.16,4.051,5.1,4.168c1.269,0.049,2.811,0.049,4.357,0
		C20.973,20.607,22.271,19.027,22.271,16.742"/>
	<path fill="#FFFFFF" d="M24.162,17.455c-0.062,0.195-0.131,0.391-0.201,0.576c0.961,0.027,3.32,0.115,5.59,0.596
		c0.068-0.283,0.139-0.576,0.189-0.869C28.441,17.572,26.68,17.434,24.162,17.455"/>
	<path fill="#FFFFFF" d="M15.006,0C6.717,0,0,6.707,0,14.975c0,0.907,0.09,1.806,0.24,2.666c1.669-0.254,4.807-0.4,6.018-0.393
		c-0.311-0.916-0.449-1.961-0.449-3.124c0-2.07,0.639-2.852,1.51-3.954c-0.66-2.353,0.239-3.964,0.239-3.964
		s1.389-0.291,4.028,1.592c1.43-0.604,5.227-0.664,7.037-0.137c1.102-0.723,3.121-1.757,3.938-1.475
		c0.221,0.361,0.699,1.396,0.289,3.66c0.281,0.498,1.723,1.562,1.723,4.568c-0.021,1.105-0.143,2.042-0.352,2.831
		c2.498-0.02,4.248,0.127,5.559,0.305C29.92,16.709,30,15.853,30,14.973C30,6.707,23.291,0,15.006,0"/>
	<path fill="#FFFFFF" d="M6.328,17.455c-1.143-0.01-4.357,0.127-6.051,0.391C0.34,18.166,0.41,18.48,0.5,18.793
		c1.339-0.322,3.159-0.693,6.078-0.771C6.488,17.834,6.396,17.65,6.328,17.455"/>
	<path fill="#FFFFFF" d="M17.793,21.43c1.021,0.645,1.32,1.453,1.32,3.641c0,2.189-0.029,2.48-0.021,2.988
		c0,0.486,0.441,0.828,0.781,1.082c4.697-1.607,8.348-5.477,9.625-10.309c-2.318-0.488-4.717-0.576-5.627-0.605
		C22.912,20.326,20.953,21.105,17.793,21.43"/>
	<path fill="#FFFFFF" d="M6.678,18.217c-2.938,0.078-4.778,0.449-6.129,0.781c1.37,4.9,5.168,8.797,10.027,10.289
		c0.317-0.293,1.02-0.596,1.02-1.27l-0.02-2.703c0,0-0.603,0.105-1.45,0.105c-2.139,0-2.811-1.367-3.138-2.131
		c-0.423-0.992-0.964-1.463-1.541-1.834c-0.353-0.232-0.433-0.496-0.021-0.574c1.891-0.363,2.38,2.145,3.64,2.547
		c0.91,0.281,2.069,0.154,2.649-0.217c0.068-0.76,0.619-1.424,1.08-1.775C9.577,21.137,7.667,20.014,6.678,18.217"/>
	<path fill="#FFFFFF" d="M5.816,21.137c0,0.088,0.102,0.156,0.23,0.156c0.119,0,0.229-0.068,0.229-0.156
		c0-0.078-0.107-0.146-0.229-0.146C5.918,20.99,5.816,21.057,5.816,21.137"/>
	<path fill="#FFFFFF" d="M6.758,21.371c-0.131,0-0.23,0.066-0.23,0.154c0,0.09,0.102,0.156,0.23,0.156
		c0.131,0,0.23-0.066,0.23-0.156C6.988,21.438,6.889,21.371,6.758,21.371"/>
	<path fill="#FFFFFF" d="M7.197,22.201c0.119,0,0.229-0.068,0.229-0.156s-0.109-0.156-0.229-0.156c-0.131,0-0.229,0.068-0.229,0.156
		C6.967,22.131,7.066,22.201,7.197,22.201"/>
	<path fill="#FFFFFF" d="M7.577,22.775c0.129,0,0.229-0.07,0.229-0.148c0-0.088-0.101-0.152-0.229-0.152
		c-0.13,0-0.229,0.064-0.229,0.152C7.348,22.705,7.447,22.775,7.577,22.775"/>
	<path fill="#FFFFFF" d="M8.017,23.332c0.121,0,0.221-0.068,0.221-0.154c0-0.08-0.1-0.148-0.221-0.148
		c-0.129,0-0.229,0.068-0.229,0.148C7.788,23.264,7.888,23.332,8.017,23.332"/>
	<path fill="#FFFFFF" d="M8.376,23.645c0,0.088,0.102,0.154,0.221,0.154c0.131,0,0.23-0.066,0.23-0.154
		c0-0.078-0.103-0.146-0.23-0.146C8.476,23.498,8.376,23.566,8.376,23.645"/>
	<path fill="#FFFFFF" d="M9.196,23.957c0,0.078,0.102,0.146,0.229,0.146c0.131,0,0.229-0.068,0.229-0.146
		c0-0.088-0.1-0.156-0.229-0.156C9.298,23.801,9.196,23.869,9.196,23.957"/>
	<path fill="#FFFFFF" d="M10.024,23.957c0,0.078,0.104,0.146,0.23,0.146c0.121,0,0.229-0.068,0.229-0.146
		c0-0.088-0.108-0.156-0.229-0.156C10.128,23.801,10.024,23.869,10.024,23.957"/>
	<path fill="#FFFFFF" d="M10.854,23.82c0,0.088,0.104,0.156,0.23,0.156c0.121,0,0.229-0.068,0.229-0.156
		c0-0.078-0.108-0.145-0.229-0.145C10.957,23.674,10.854,23.742,10.854,23.82"/>
</g>
</svg>
