<?xml version="1.0" encoding="utf-8"?>
<!-- Generator: Adobe Illustrator 16.2.1, SVG Export Plug-In . SVG Version: 6.00 Build 0)  -->
<!DOCTYPE svg PUBLIC "-//W3C//DTD SVG 1.1//EN" "http://www.w3.org/Graphics/SVG/1.1/DTD/svg11.dtd">
<svg version="1.1" id="Layer_1" xmlns="http://www.w3.org/2000/svg" xmlns:xlink="http://www.w3.org/1999/xlink" x="0px" y="0px"
	 width="30px" height="30px" viewBox="0 0 30 30" enable-background="new 0 0 30 30" xml:space="preserve">
<g>
	<path fill="#FFFFFF" d="M12.17,7.9c-1.18,0.33-1.76,1.93-1.331,3.59c0.46,1.65,1.77,2.729,2.94,2.41
		c1.17-0.319,1.76-1.92,1.321-3.58C14.65,8.66,13.34,7.58,12.17,7.9"/>
	<path fill="#FFFFFF" d="M9.55,20.629c0.1,1.451,1.77,2.521,3.74,2.391c1.969-0.141,3.489-1.42,3.39-2.867
		c-0.1-1.453-1.78-2.523-3.74-2.383C10.97,17.9,9.45,19.189,9.55,20.629"/>
	<path fill="#FFFFFF" d="M23.5,16.83v2.459h-2.449V16.83h-2.439v-2.45h2.439v-2.46H23.5v2.46h2.449v2.45H23.5z M17.41,10.96
		c0,2.63-2.439,2.96-2.439,4.08s3.25,2.009,3.25,4.79c0,4.643-5.7,4.379-5.7,4.379s-4.91,0.17-4.91-3.549
		c0-3.74,5.58-3.59,5.86-3.59c-0.07-0.861-0.63-0.711-0.63-1.131V14.89c0,0-4.23,0.469-4.23-3.65c0-4.12,4.84-4.24,4.84-4.24h4.771
		c0,0.74-2.182,0.48-2.182,0.87C17.279,8.43,17.41,9.391,17.41,10.96 M15.004,0C6.713,0,0,6.71,0,15c0,8.289,6.713,15,15.004,15
		C23.287,30,30,23.289,30,15C30,6.71,23.287,0,15.004,0"/>
</g>
</svg>
