<?xml version="1.0" encoding="utf-8"?>
<!-- Generator: Adobe Illustrator 16.2.1, SVG Export Plug-In . SVG Version: 6.00 Build 0)  -->
<!DOCTYPE svg PUBLIC "-//W3C//DTD SVG 1.1//EN" "http://www.w3.org/Graphics/SVG/1.1/DTD/svg11.dtd">
<svg version="1.1" id="Layer_1" xmlns="http://www.w3.org/2000/svg" xmlns:xlink="http://www.w3.org/1999/xlink" x="0px" y="0px"
	 width="30px" height="30px" viewBox="0 0 30 30" enable-background="new 0 0 30 30" xml:space="preserve">
<path fill="#FFFFFF" d="M0,15c0,8.281,6.717,15,14.995,15C23.281,30,30,23.281,30,15c0-8.278-6.719-15-15.005-15
	C6.717,0,0,6.723,0,15 M10.136,9.271h-0.021c-1.18,0-1.938-0.85-1.938-1.91c0-1.08,0.79-1.909,1.988-1.909s1.938,0.829,1.96,1.909
	C12.125,8.421,11.365,9.271,10.136,9.271 M11.896,21.822H8.386V10.78h3.511V21.822z M20.503,10.521c2.31,0,4.038,1.58,4.038,4.971
	v6.33h-3.509v-5.91c0-1.48-0.5-2.5-1.771-2.5c-0.969,0-1.549,0.689-1.799,1.35c-0.102,0.23-0.121,0.562-0.121,0.891v6.171h-3.508
	c0,0,0.051-10.011,0-11.042h3.508v1.561l-0.02,0.04h0.02v-0.04C17.814,11.591,18.645,10.521,20.503,10.521"/>
</svg>
