<?xml version="1.0" encoding="utf-8"?>
<!-- Generator: Adobe Illustrator 16.2.1, SVG Export Plug-In . SVG Version: 6.00 Build 0)  -->
<!DOCTYPE svg PUBLIC "-//W3C//DTD SVG 1.1//EN" "http://www.w3.org/Graphics/SVG/1.1/DTD/svg11.dtd">
<svg version="1.1" id="Layer_1" xmlns="http://www.w3.org/2000/svg" xmlns:xlink="http://www.w3.org/1999/xlink" x="0px" y="0px"
	 width="23px" height="23px" viewBox="0 0 23 23" enable-background="new 0 0 23 23" xml:space="preserve">
<g>
	<g>
		<path fill="#DEDEDD" d="M14.664,16.896c-2.277,0-4.424-0.893-6.045-2.514c-1.602-1.604-2.496-3.725-2.514-5.975
			c-0.02-2.261,0.845-4.381,2.434-5.97c1.573-1.573,3.673-2.439,5.913-2.439c2.277,0,4.423,0.891,6.041,2.509
			c3.315,3.315,3.346,8.678,0.069,11.954C18.992,16.031,16.898,16.896,14.664,16.896z M14.452,2.975
			c-1.445,0-2.797,0.556-3.809,1.567c-1.02,1.02-1.575,2.384-1.563,3.841c0.013,1.465,0.596,2.848,1.643,3.895
			c1.06,1.058,2.46,1.644,3.941,1.644c1.438,0,2.786-0.557,3.795-1.564c2.115-2.117,2.085-5.591-0.069-7.746
			C17.333,3.556,15.936,2.975,14.452,2.975z"/>
	</g>
	<g>
		<path fill-rule="evenodd" clip-rule="evenodd" fill="#E0E0DF" d="M7.557,12.615l2.828,2.828l-6.974,6.982
			c-0.773,0.775-2.033,0.766-2.817-0.02c-0.784-0.783-0.793-2.043-0.02-2.816L7.557,12.615z"/>
	</g>
</g>
</svg>
