<?xml version="1.0" encoding="utf-8"?>
<!-- Generator: Adobe Illustrator 16.2.1, SVG Export Plug-In . SVG Version: 6.00 Build 0)  -->
<!DOCTYPE svg PUBLIC "-//W3C//DTD SVG 1.1//EN" "http://www.w3.org/Graphics/SVG/1.1/DTD/svg11.dtd">
<svg version="1.1" id="Layer_1" xmlns="http://www.w3.org/2000/svg" xmlns:xlink="http://www.w3.org/1999/xlink" x="0px" y="0px"
	 width="30px" height="30px" viewBox="0 0 30 30" enable-background="new 0 0 30 30" xml:space="preserve">
<path fill="#FFFFFF" d="M22.2,12.359l0.01,0.44c0,4.512-3.39,9.699-9.58,9.699c-1.91,0-3.68-0.561-5.17-1.529
	C7.72,21,7.99,21.01,8.27,21.01c1.57,0,3.03-0.539,4.18-1.449c-1.47-0.031-2.72-1.012-3.14-2.371c0.2,0.041,0.4,0.061,0.63,0.061
	c0.31,0,0.6-0.039,0.88-0.119c-1.54-0.311-2.7-1.689-2.7-3.339v-0.04C8.57,14,9.1,14.16,9.65,14.17c-0.9-0.609-1.5-1.65-1.5-2.83
	c0-0.63,0.16-1.22,0.45-1.72c1.67,2.069,4.14,3.42,6.94,3.569c-0.05-0.25-0.08-0.52-0.08-0.789c0-1.881,1.511-3.4,3.37-3.4
	c0.97,0,1.84,0.41,2.46,1.08c0.76-0.16,1.479-0.439,2.13-0.83c-0.24,0.79-0.779,1.46-1.48,1.891c0.681-0.091,1.33-0.271,1.94-0.541
	C23.42,11.279,22.85,11.88,22.2,12.359 M14.995,0C6.714,0,0,6.71,0,15c0,8.289,6.714,15,14.995,15C23.286,30,30,23.289,30,15
	C30,6.71,23.286,0,14.995,0"/>
</svg>
