<?xml version="1.0" encoding="utf-8"?>
<!-- Generator: Adobe Illustrator 16.2.1, SVG Export Plug-In . SVG Version: 6.00 Build 0)  -->
<!DOCTYPE svg PUBLIC "-//W3C//DTD SVG 1.1//EN" "http://www.w3.org/Graphics/SVG/1.1/DTD/svg11.dtd">
<svg version="1.1" id="Layer_1" xmlns="http://www.w3.org/2000/svg" xmlns:xlink="http://www.w3.org/1999/xlink" x="0px" y="0px"
	 width="150px" height="150px" viewBox="-60 -60 150 150" enable-background="new -60 -60 150 150" xml:space="preserve">
<path fill="#D0C4C9" d="M-0.529-44.8h-2.75v9.62h-4.111v-9.62h-2.06v-3.32h2.06v-1.989c0-2.711,1.16-4.32,4.451-4.32h2.76v3.32H-1.9
	c-1.289,0-1.369,0.459-1.369,1.33l-0.01,1.659h3.109L-0.529-44.8z M-4.995-60C-13.286-60-20-53.29-20-45c0,8.289,6.714,15,15.005,15
	C3.286-30,10-36.711,10-45C10-53.29,3.286-60-4.995-60"/>
<g>
	<path fill="#D0C4C9" d="M32.17-52.1c-1.18,0.33-1.76,1.93-1.331,3.59c0.46,1.65,1.771,2.729,2.94,2.41
		c1.17-0.319,1.76-1.92,1.32-3.58C34.65-51.34,33.34-52.42,32.17-52.1"/>
	<path fill="#D0C4C9" d="M29.55-39.371c0.101,1.451,1.771,2.521,3.74,2.391c1.969-0.141,3.489-1.42,3.39-2.867
		c-0.1-1.451-1.779-2.521-3.74-2.383C30.971-42.1,29.45-40.811,29.55-39.371"/>
	<path fill="#D0C4C9" d="M43.5-43.17v2.459h-2.449v-2.459h-2.439v-2.45h2.439v-2.46H43.5v2.46h2.449v2.45H43.5z M37.41-49.04
		c0,2.63-2.439,2.96-2.439,4.08s3.25,2.009,3.25,4.79c0,4.643-5.699,4.379-5.699,4.379s-4.91,0.17-4.91-3.549
		c0-3.74,5.58-3.59,5.859-3.59c-0.07-0.861-0.63-0.711-0.63-1.131v-1.049c0,0-4.229,0.469-4.229-3.65c0-4.12,4.84-4.24,4.84-4.24
		h4.771c0,0.74-2.184,0.48-2.184,0.87C37.279-51.57,37.41-50.609,37.41-49.04 M35.004-60C26.713-60,20-53.29,20-45
		c0,8.289,6.713,15,15.004,15C43.287-30,50-36.711,50-45C50-53.29,43.287-60,35.004-60"/>
</g>
<path fill="#D0C4C9" d="M60-45c0,8.281,6.717,15,14.995,15C83.281-30,90-36.719,90-45c0-8.277-6.719-15-15.005-15
	C66.717-60,60-53.277,60-45 M70.137-50.729h-0.021c-1.18,0-1.938-0.851-1.938-1.91c0-1.08,0.79-1.909,1.988-1.909
	s1.938,0.829,1.96,1.909C72.125-51.579,71.365-50.729,70.137-50.729 M71.896-38.178h-3.51V-49.22h3.51V-38.178L71.896-38.178z
	 M80.503-49.479c2.31,0,4.038,1.58,4.038,4.971v6.33h-3.509v-5.91c0-1.48-0.5-2.5-1.771-2.5c-0.971,0-1.551,0.689-1.801,1.35
	c-0.104,0.23-0.121,0.562-0.121,0.891v6.172h-3.508c0,0,0.051-10.012,0-11.042h3.508v1.561l-0.021,0.04h0.021v-0.04
	C77.814-48.409,78.645-49.479,80.503-49.479"/>
<path fill="#D0C4C9" d="M-37.8-47.641l0.01,0.439c0,4.512-3.39,9.699-9.58,9.699c-1.909,0-3.68-0.561-5.17-1.529
	c0.261,0.031,0.53,0.041,0.81,0.041c1.57,0,3.03-0.539,4.181-1.449c-1.47-0.029-2.72-1.012-3.14-2.371
	c0.199,0.041,0.399,0.062,0.629,0.062c0.311,0,0.601-0.039,0.881-0.119c-1.541-0.312-2.7-1.689-2.7-3.339v-0.04
	C-51.43-46-50.9-45.84-50.35-45.83c-0.9-0.609-1.5-1.65-1.5-2.83c0-0.63,0.16-1.22,0.449-1.72c1.67,2.069,4.141,3.42,6.94,3.569
	c-0.05-0.25-0.08-0.521-0.08-0.789c0-1.881,1.511-3.4,3.37-3.4c0.97,0,1.84,0.41,2.46,1.08c0.76-0.16,1.479-0.439,2.13-0.83
	c-0.24,0.79-0.779,1.46-1.48,1.891c0.683-0.091,1.33-0.271,1.94-0.541C-36.58-48.721-37.15-48.12-37.8-47.641 M-45.005-60
	C-53.286-60-60-53.29-60-45c0,8.289,6.714,15,14.995,15C-36.714-30-30-36.711-30-45C-30-53.29-36.714-60-45.005-60"/>
<path fill="#D0C4C9" d="M-0.529-4.8h-2.75v9.62h-4.111V-4.8h-2.06v-3.32h2.06v-1.989c0-2.711,1.16-4.32,4.451-4.32h2.76v3.32H-1.9
	c-1.289,0-1.369,0.459-1.369,1.33l-0.01,1.659h3.109L-0.529-4.8z M-4.995-20C-13.286-20-20-13.29-20-5c0,8.289,6.714,15,15.005,15
	C3.286,10,10,3.289,10-5C10-13.29,3.286-20-4.995-20"/>
<g>
	<path fill="#D0C4C9" d="M32.17-12.1c-1.18,0.33-1.76,1.93-1.331,3.59c0.46,1.65,1.771,2.729,2.94,2.41
		c1.17-0.319,1.76-1.92,1.32-3.58C34.65-11.34,33.34-12.42,32.17-12.1"/>
	<path fill="#D0C4C9" d="M29.55,0.629C29.65,2.08,31.32,3.15,33.29,3.02c1.969-0.141,3.489-1.42,3.39-2.867
		c-0.1-1.451-1.779-2.521-3.74-2.383C30.971-2.1,29.45-0.811,29.55,0.629"/>
	<path fill="#D0C4C9" d="M43.5-3.17v2.459h-2.449V-3.17h-2.439v-2.45h2.439v-2.46H43.5v2.46h2.449v2.45H43.5z M37.41-9.04
		c0,2.63-2.439,2.96-2.439,4.08s3.25,2.009,3.25,4.79c0,4.643-5.699,4.379-5.699,4.379s-4.91,0.17-4.91-3.549
		c0-3.74,5.58-3.59,5.859-3.59c-0.07-0.861-0.63-0.711-0.63-1.131v-1.049c0,0-4.229,0.469-4.229-3.65c0-4.12,4.84-4.24,4.84-4.24
		h4.771c0,0.74-2.184,0.48-2.184,0.87C37.279-11.57,37.41-10.609,37.41-9.04 M35.004-20C26.713-20,20-13.29,20-5
		c0,8.289,6.713,15,15.004,15C43.287,10,50,3.289,50-5C50-13.29,43.287-20,35.004-20"/>
</g>
<path fill="#D0C4C9" d="M60-5c0,8.281,6.717,15,14.995,15C83.281,10,90,3.281,90-5c0-8.277-6.719-15-15.005-15
	C66.717-20,60-13.277,60-5 M70.137-10.729h-0.021c-1.18,0-1.938-0.851-1.938-1.91c0-1.08,0.79-1.909,1.988-1.909
	s1.938,0.829,1.96,1.909C72.125-11.579,71.365-10.729,70.137-10.729 M71.896,1.822h-3.51V-9.22h3.51V1.822L71.896,1.822z
	 M80.503-9.479c2.31,0,4.038,1.58,4.038,4.971v6.33h-3.509v-5.91c0-1.48-0.5-2.5-1.771-2.5c-0.971,0-1.551,0.689-1.801,1.35
	c-0.104,0.23-0.121,0.562-0.121,0.891v6.172h-3.508c0,0,0.051-10.012,0-11.042h3.508v1.561l-0.021,0.04h0.021v-0.04
	C77.814-8.409,78.645-9.479,80.503-9.479"/>
<path fill="#D0C4C9" d="M-37.8-7.641l0.01,0.439c0,4.512-3.39,9.699-9.58,9.699c-1.909,0-3.68-0.561-5.17-1.529
	C-52.279,1-52.01,1.01-51.73,1.01c1.57,0,3.03-0.539,4.181-1.449c-1.47-0.029-2.72-1.012-3.14-2.371
	c0.199,0.041,0.399,0.062,0.629,0.062c0.311,0,0.601-0.039,0.881-0.119c-1.541-0.312-2.7-1.689-2.7-3.339v-0.04
	C-51.43-6-50.9-5.84-50.35-5.83c-0.9-0.609-1.5-1.65-1.5-2.83c0-0.63,0.16-1.22,0.449-1.72c1.67,2.069,4.141,3.42,6.94,3.569
	c-0.05-0.25-0.08-0.521-0.08-0.789c0-1.881,1.511-3.4,3.37-3.4c0.97,0,1.84,0.41,2.46,1.08c0.76-0.16,1.479-0.439,2.13-0.83
	c-0.24,0.79-0.779,1.46-1.48,1.891c0.683-0.091,1.33-0.271,1.94-0.541C-36.58-8.721-37.15-8.12-37.8-7.641 M-45.005-20
	C-53.286-20-60-13.29-60-5c0,8.289,6.714,15,14.995,15C-36.714,10-30,3.289-30-5C-30-13.29-36.714-20-45.005-20"/>
<path fill="#FFFFFF" d="M-0.529,35.2h-2.75v9.62h-4.111V35.2h-2.06v-3.32h2.06v-1.989c0-2.711,1.16-4.32,4.451-4.32h2.76v3.32H-1.9
	c-1.289,0-1.369,0.459-1.369,1.33l-0.01,1.659h3.109L-0.529,35.2z M-4.995,20C-13.286,20-20,26.71-20,35c0,8.289,6.714,15,15.005,15
	C3.286,50,10,43.289,10,35C10,26.71,3.286,20-4.995,20"/>
<g>
	<path fill="#FFFFFF" d="M32.17,27.9c-1.18,0.33-1.76,1.93-1.331,3.59c0.46,1.65,1.771,2.729,2.94,2.41
		c1.17-0.319,1.76-1.92,1.32-3.58C34.65,28.66,33.34,27.58,32.17,27.9"/>
	<path fill="#FFFFFF" d="M29.55,40.629c0.101,1.451,1.771,2.521,3.74,2.391c1.969-0.141,3.489-1.42,3.39-2.867
		c-0.1-1.451-1.779-2.521-3.74-2.383C30.971,37.9,29.45,39.189,29.55,40.629"/>
	<path fill="#FFFFFF" d="M43.5,36.83v2.459h-2.449V36.83h-2.439v-2.45h2.439v-2.46H43.5v2.46h2.449v2.45H43.5z M37.41,30.96
		c0,2.63-2.439,2.96-2.439,4.08s3.25,2.009,3.25,4.79c0,4.643-5.699,4.379-5.699,4.379s-4.91,0.17-4.91-3.549
		c0-3.74,5.58-3.59,5.859-3.59c-0.07-0.861-0.63-0.711-0.63-1.131v-1.049c0,0-4.229,0.469-4.229-3.65c0-4.12,4.84-4.24,4.84-4.24
		h4.771c0,0.74-2.184,0.48-2.184,0.87C37.279,28.43,37.41,29.391,37.41,30.96 M35.004,20C26.713,20,20,26.71,20,35
		c0,8.289,6.713,15,15.004,15C43.287,50,50,43.289,50,35C50,26.71,43.287,20,35.004,20"/>
</g>
<path fill="#FFFFFF" d="M60,35c0,8.281,6.717,15,14.995,15C83.281,50,90,43.281,90,35c0-8.277-6.719-15-15.005-15
	C66.717,20,60,26.723,60,35 M70.137,29.271h-0.021c-1.18,0-1.938-0.851-1.938-1.91c0-1.08,0.79-1.909,1.988-1.909
	s1.938,0.829,1.96,1.909C72.125,28.421,71.365,29.271,70.137,29.271 M71.896,41.822h-3.51V30.78h3.51V41.822L71.896,41.822z
	 M80.503,30.521c2.31,0,4.038,1.58,4.038,4.971v6.33h-3.509v-5.91c0-1.48-0.5-2.5-1.771-2.5c-0.971,0-1.551,0.689-1.801,1.35
	c-0.104,0.23-0.121,0.562-0.121,0.891v6.172h-3.508c0,0,0.051-10.012,0-11.042h3.508v1.561l-0.021,0.04h0.021v-0.04
	C77.814,31.591,78.645,30.521,80.503,30.521"/>
<path fill="#FFFFFF" d="M-37.8,32.359l0.01,0.439c0,4.512-3.39,9.699-9.58,9.699c-1.909,0-3.68-0.561-5.17-1.529
	c0.261,0.031,0.53,0.041,0.81,0.041c1.57,0,3.03-0.539,4.181-1.449c-1.47-0.029-2.72-1.012-3.14-2.371
	c0.199,0.041,0.399,0.062,0.629,0.062c0.311,0,0.601-0.039,0.881-0.119c-1.541-0.312-2.7-1.689-2.7-3.339v-0.04
	C-51.43,34-50.9,34.16-50.35,34.17c-0.9-0.609-1.5-1.65-1.5-2.83c0-0.63,0.16-1.22,0.449-1.72c1.67,2.069,4.141,3.42,6.94,3.569
	c-0.05-0.25-0.08-0.521-0.08-0.789c0-1.881,1.511-3.4,3.37-3.4c0.97,0,1.84,0.41,2.46,1.08c0.76-0.16,1.479-0.439,2.13-0.83
	c-0.24,0.79-0.779,1.46-1.48,1.891c0.683-0.091,1.33-0.271,1.94-0.541C-36.58,31.279-37.15,31.88-37.8,32.359 M-45.005,20
	C-53.286,20-60,26.71-60,35c0,8.289,6.714,15,14.995,15C-36.714,50-30,43.289-30,35C-30,26.71-36.714,20-45.005,20"/>
<path fill="#FFFFFF" d="M-0.529,75.2h-2.75v9.62h-4.111V75.2h-2.06v-3.32h2.06v-1.989c0-2.711,1.16-4.32,4.451-4.32h2.76v3.32H-1.9
	c-1.289,0-1.369,0.459-1.369,1.33l-0.01,1.659h3.109L-0.529,75.2z M-4.995,60C-13.286,60-20,66.71-20,75c0,8.289,6.714,15,15.005,15
	C3.286,90,10,83.289,10,75C10,66.71,3.286,60-4.995,60"/>
<g>
	<path fill="#FFFFFF" d="M32.17,67.9c-1.18,0.33-1.76,1.93-1.331,3.59c0.46,1.65,1.771,2.729,2.94,2.41
		c1.17-0.319,1.76-1.92,1.32-3.58C34.65,68.66,33.34,67.58,32.17,67.9"/>
	<path fill="#FFFFFF" d="M29.55,80.629c0.101,1.451,1.771,2.521,3.74,2.391c1.969-0.141,3.489-1.42,3.39-2.867
		c-0.1-1.451-1.779-2.521-3.74-2.383C30.971,77.9,29.45,79.189,29.55,80.629"/>
	<path fill="#FFFFFF" d="M43.5,76.83v2.459h-2.449V76.83h-2.439v-2.45h2.439v-2.46H43.5v2.46h2.449v2.45H43.5z M37.41,70.96
		c0,2.63-2.439,2.96-2.439,4.08s3.25,2.009,3.25,4.79c0,4.643-5.699,4.379-5.699,4.379s-4.91,0.17-4.91-3.549
		c0-3.74,5.58-3.59,5.859-3.59c-0.07-0.861-0.63-0.711-0.63-1.131v-1.049c0,0-4.229,0.469-4.229-3.65c0-4.12,4.84-4.24,4.84-4.24
		h4.771c0,0.74-2.184,0.48-2.184,0.87C37.279,68.43,37.41,69.391,37.41,70.96 M35.004,60C26.713,60,20,66.71,20,75
		c0,8.289,6.713,15,15.004,15C43.287,90,50,83.289,50,75C50,66.71,43.287,60,35.004,60"/>
</g>
<path fill="#FFFFFF" d="M60,75c0,8.281,6.717,15,14.995,15C83.281,90,90,83.281,90,75c0-8.277-6.719-15-15.005-15
	C66.717,60,60,66.723,60,75 M70.137,69.271h-0.021c-1.18,0-1.938-0.851-1.938-1.91c0-1.08,0.79-1.909,1.988-1.909
	s1.938,0.829,1.96,1.909C72.125,68.421,71.365,69.271,70.137,69.271 M71.896,81.822h-3.51V70.78h3.51V81.822L71.896,81.822z
	 M80.503,70.521c2.31,0,4.038,1.58,4.038,4.971v6.33h-3.509v-5.91c0-1.48-0.5-2.5-1.771-2.5c-0.971,0-1.551,0.689-1.801,1.35
	c-0.104,0.23-0.121,0.562-0.121,0.891v6.172h-3.508c0,0,0.051-10.012,0-11.042h3.508v1.561l-0.021,0.04h0.021v-0.04
	C77.814,71.591,78.645,70.521,80.503,70.521"/>
<path fill="#FFFFFF" d="M-37.8,72.359l0.01,0.439c0,4.512-3.39,9.699-9.58,9.699c-1.909,0-3.68-0.561-5.17-1.529
	c0.261,0.031,0.53,0.041,0.81,0.041c1.57,0,3.03-0.539,4.181-1.449c-1.47-0.029-2.72-1.012-3.14-2.371
	c0.199,0.041,0.399,0.062,0.629,0.062c0.311,0,0.601-0.039,0.881-0.119c-1.541-0.312-2.7-1.689-2.7-3.339v-0.04
	C-51.43,74-50.9,74.16-50.35,74.17c-0.9-0.609-1.5-1.65-1.5-2.83c0-0.63,0.16-1.22,0.449-1.72c1.67,2.069,4.141,3.42,6.94,3.569
	c-0.05-0.25-0.08-0.521-0.08-0.789c0-1.881,1.511-3.4,3.37-3.4c0.97,0,1.84,0.41,2.46,1.08c0.76-0.16,1.479-0.439,2.13-0.83
	c-0.24,0.79-0.779,1.46-1.48,1.891c0.683-0.091,1.33-0.271,1.94-0.541C-36.58,71.279-37.15,71.88-37.8,72.359 M-45.005,60
	C-53.286,60-60,66.71-60,75c0,8.289,6.714,15,14.995,15C-36.714,90-30,83.289-30,75C-30,66.71-36.714,60-45.005,60"/>
</svg>
